<?xml version="1.0" encoding="UTF-8"?>
<svg id="Layer_1" xmlns="http://www.w3.org/2000/svg" version="1.1" viewBox="0 0 482.96 236.35">
  <!-- Generator: Adobe Illustrator 29.4.0, SVG Export Plug-In . SVG Version: 2.1.0 Build 152)  -->
  <defs>
    <style>
      .st0 {
        fill: #231f20;
      }

      .st1 {
        fill: #1c2d5b;
      }
    </style>
  </defs>
  <path class="st1" d="M41.72,233.17c-2.86-2.51-3.62-5.78-3.62-8.61,0-1.98.61-5.43,3.41-7.99,2.1-1.93,4.87-3.09,9.22-3.09,1.81,0,2.89.12,4.23.29,1.11.15,2.04.41,2.92.49.32.03.44.18.44.35,0,.23-.09.58-.15,1.6-.06.96-.03,2.57-.09,3.15-.03.44-.09.67-.35.67-.23,0-.29-.23-.29-.64-.03-.9-.41-1.93-1.14-2.68-.96-1.02-3.24-1.81-5.92-1.81-2.54,0-4.2.64-5.49,1.81-2.13,1.96-2.68,4.73-2.68,7.56,0,6.94,5.28,10.39,9.19,10.39,2.6,0,4.17-.29,5.34-1.63.5-.56.88-1.4.99-1.93.09-.47.15-.58.38-.58.2,0,.26.2.26.44,0,.35-.35,2.89-.64,3.88-.15.5-.26.64-.76.85-1.17.47-3.38.67-5.25.67-4,0-7.35-.88-10.01-3.18"/>
  <path class="st1" d="M59.74,226.59c0-4.23,2.79-9.68,10.2-9.68,6.15,0,9.98,3.58,9.98,9.24s-3.95,10.13-10.23,10.13c-7.09,0-9.96-5.31-9.96-9.68M76.46,227.06c0-5.53-3.19-8.97-7.24-8.97-2.84,0-6.08,1.58-6.08,7.73,0,5.14,2.84,9.21,7.58,9.21,1.73,0,5.73-.84,5.73-7.98Z"/>
  <path class="st1" d="M85.08,229.48c-.12,0-.17.05-.22.2l-1.33,3.53c-.25.62-.37,1.21-.37,1.51,0,.45.22.77.99.77h.37c.3,0,.37.05.37.2,0,.2-.15.25-.42.25-.79,0-1.85-.07-2.62-.07-.27,0-1.63.07-2.92.07-.32,0-.47-.05-.47-.25,0-.15.1-.2.3-.2.22,0,.57-.02.77-.05,1.14-.15,1.6-.99,2.1-2.22l6.2-15.51c.3-.72.45-.99.69-.99.22,0,.37.22.62.79.59,1.36,4.55,11.44,6.13,15.19.94,2.22,1.65,2.57,2.17,2.69.37.07.74.1,1.04.1.2,0,.32.02.32.2,0,.2-.22.25-1.14.25s-2.69,0-4.67-.05c-.45-.03-.74-.03-.74-.2,0-.15.1-.2.35-.22.17-.05.35-.27.22-.57l-1.98-5.24c-.05-.12-.12-.17-.25-.17h-5.51M90.12,228.25c.12,0,.15-.07.12-.15l-2.22-6.1c-.02-.1-.05-.22-.12-.22s-.12.12-.15.22l-2.27,6.08c-.02.1,0,.17.1.17h4.55Z"/>
  <path class="st1" d="M98.54,235.63c-.4-.17-.47-.3-.47-.84,0-1.36.1-2.84.12-3.24.02-.37.1-.64.3-.64.22,0,.25.22.25.42,0,.32.1.84.22,1.26.54,1.83,2,2.5,3.53,2.5,2.22,0,3.31-1.51,3.31-2.82,0-1.21-.37-2.35-2.42-3.95l-1.14-.89c-2.72-2.12-3.66-3.85-3.66-5.85,0-2.72,2.27-4.67,5.71-4.67,1.61,0,2.64.25,3.29.42.22.05.35.12.35.3,0,.32-.1,1.04-.1,2.96,0,.54-.07.74-.27.74-.17,0-.25-.15-.25-.44,0-.22-.12-.99-.64-1.63-.37-.47-1.09-1.21-2.69-1.21-1.83,0-2.94,1.06-2.94,2.55,0,1.13.57,2,2.62,3.56l.69.52c2.99,2.25,4.05,3.95,4.05,6.3,0,1.43-.54,3.14-2.32,4.3-1.24.79-2.62,1.01-3.93,1.01-1.43,0-2.54-.17-3.61-.64"/>
  <path class="st1" d="M116.94,218.64l-3.68.1c-1.43.05-2.03.17-2.4.72-.25.37-.37.67-.42.86-.05.2-.12.3-.27.3-.17,0-.22-.12-.22-.4,0-.4.47-2.64.52-2.84.07-.32.15-.47.3-.47.2,0,.45.25,1.06.3.72.07,1.65.12,2.47.12h9.78c.79,0,1.33-.07,1.7-.12.37-.07.57-.12.67-.12.17,0,.2.15.2.52,0,.52-.07,2.22-.07,2.87-.02.25-.07.4-.22.4-.2,0-.25-.12-.27-.49l-.02-.27c-.05-.64-.72-1.33-2.92-1.38l-3.11-.07v10.13c0,2.27,0,4.22.12,5.29.07.69.22,1.23.96,1.33.35.05.89.1,1.26.1.27,0,.39.07.39.2,0,.17-.2.25-.47.25-1.63,0-3.19-.07-3.88-.07-.57,0-2.12.07-3.11.07-.32,0-.49-.07-.49-.25,0-.12.1-.2.4-.2.37,0,.67-.05.89-.1.49-.1.64-.64.72-1.36.12-1.04.12-2.99.12-5.26v-10.13"/>
  <path class="st1" d="M130.08,229.48c-.12,0-.17.05-.22.2l-1.33,3.53c-.25.62-.37,1.21-.37,1.51,0,.45.22.77.99.77h.37c.3,0,.37.05.37.2,0,.2-.15.25-.42.25-.79,0-1.85-.07-2.62-.07-.27,0-1.63.07-2.92.07-.32,0-.47-.05-.47-.25,0-.15.1-.2.3-.2.22,0,.57-.02.77-.05,1.14-.15,1.61-.99,2.1-2.22l6.2-15.51c.3-.72.44-.99.69-.99.22,0,.37.22.62.79.59,1.36,4.54,11.44,6.13,15.19.94,2.22,1.66,2.57,2.17,2.69.37.07.74.1,1.04.1.2,0,.32.02.32.2,0,.2-.22.25-1.14.25s-2.69,0-4.67-.05c-.45-.03-.74-.03-.74-.2,0-.15.1-.2.35-.22.17-.05.35-.27.22-.57l-1.98-5.24c-.05-.12-.12-.17-.25-.17h-5.51M135.12,228.25c.12,0,.15-.07.12-.15l-2.22-6.1c-.02-.1-.05-.22-.12-.22s-.12.12-.15.22l-2.27,6.08c-.02.1,0,.17.1.17h4.55Z"/>
  <path class="st1" d="M148.86,228.76c0,3.16,0,4.87.52,5.31.42.37,1.06.54,2.99.54,1.31,0,2.27-.02,2.89-.69.3-.32.59-1.01.64-1.48.02-.22.07-.37.27-.37.17,0,.2.12.2.42,0,.27-.17,2.12-.37,2.84-.15.54-.27.67-1.56.67-1.78,0-3.06-.05-4.17-.08-1.11-.05-2-.07-3.01-.07-.27,0-.82,0-1.41.02-.57,0-1.21.05-1.71.05-.32,0-.49-.07-.49-.25,0-.12.1-.2.4-.2.37,0,.67-.05.89-.1.49-.1.62-.64.72-1.36.12-1.04.12-2.99.12-5.26v-4.35c0-3.76,0-4.45-.05-5.24-.05-.84-.25-1.23-1.06-1.41-.2-.05-.49-.07-.82-.07-.27,0-.42-.05-.42-.22s.17-.22.54-.22c1.16,0,2.72.07,3.39.07.59,0,2.4-.07,3.36-.07.35,0,.52.05.52.22s-.15.22-.45.22c-.27,0-.67.02-.96.07-.67.12-.86.54-.91,1.41-.05.79-.05,1.48-.05,5.24v4.35"/>
  <path class="st1" d="M168.24,222.35c0-4.43,0-5.25-.06-6.18-.06-.99-.29-1.46-1.26-1.66-.23-.06-.73-.09-1.14-.09-.32,0-.5-.06-.5-.26s.2-.26.64-.26c1.55,0,3.38.09,4,.09.99,0,3.21-.09,4.11-.09,1.84,0,3.79.18,5.37,1.26.82.55,1.98,2.04,1.98,4,0,2.16-.9,4.14-3.85,6.54,2.6,3.27,4.61,5.86,6.33,7.67,1.63,1.69,2.83,1.9,3.27,1.98.32.06.58.09.82.09s.35.09.35.23c0,.23-.2.29-.55.29h-2.77c-1.63,0-2.36-.15-3.12-.55-1.26-.67-2.36-2.04-4-4.29-1.17-1.6-2.51-3.59-2.89-4.02-.15-.18-.32-.21-.53-.21l-2.54-.06c-.14,0-.23.06-.23.23v.41c0,2.71,0,5.02.15,6.24.09.85.26,1.49,1.14,1.61.44.06,1.08.12,1.43.12.23,0,.35.09.35.23,0,.2-.2.29-.58.29-1.69,0-3.85-.09-4.29-.09-.55,0-2.39.09-3.56.09-.38,0-.58-.09-.58-.29,0-.15.12-.23.47-.23.44,0,.79-.06,1.05-.12.58-.12.73-.76.85-1.61.15-1.23.15-3.53.15-6.21v-5.14M171.68,224.65c0,.32.06.44.26.53.61.2,1.49.29,2.22.29,1.17,0,1.55-.12,2.07-.5.88-.64,1.72-1.98,1.72-4.38,0-4.14-2.74-5.34-4.46-5.34-.73,0-1.26.03-1.55.12-.2.06-.26.17-.26.41v8.87Z"/>
  <path class="st1" d="M188.8,224.42c0-3.76,0-4.45-.05-5.24-.05-.84-.25-1.24-1.06-1.41-.2-.05-.62-.07-.96-.07-.27,0-.42-.05-.42-.22s.17-.22.54-.22c.67,0,1.38.02,2,.02.64.02,1.21.05,1.56.05.79,0,5.71,0,6.18-.02.47-.05.86-.1,1.06-.15.12-.02.27-.1.4-.1s.15.1.15.22c0,.17-.12.47-.2,1.61-.02.25-.07,1.33-.12,1.63-.02.12-.07.27-.25.27s-.22-.12-.22-.35c0-.17-.02-.59-.15-.89-.17-.45-.42-.74-1.65-.89-.42-.05-3.01-.1-3.51-.1-.12,0-.17.07-.17.25v6.25c0,.17.02.27.17.27.54,0,3.39,0,3.95-.05.59-.05.96-.12,1.19-.37.17-.2.27-.32.39-.32.1,0,.17.05.17.2s-.1.54-.2,1.8c-.02.49-.1,1.48-.1,1.65,0,.2,0,.47-.22.47-.17,0-.22-.1-.22-.22-.02-.25-.02-.57-.1-.89-.12-.49-.47-.86-1.38-.96-.47-.05-2.92-.07-3.51-.07-.12,0-.15.1-.15.25v1.95c0,.84-.02,3.11,0,3.83.05,1.7.45,2.08,2.96,2.08.64,0,1.68,0,2.32-.3.64-.3.94-.82,1.11-1.83.05-.27.1-.37.27-.37.2,0,.2.2.2.44,0,.57-.2,2.25-.32,2.74-.17.64-.4.64-1.33.64-1.85,0-3.21-.05-4.27-.08-1.06-.05-1.83-.07-2.57-.07-.27,0-.82,0-1.41.02-.57,0-1.21.05-1.7.05-.32,0-.49-.07-.49-.25,0-.12.1-.2.4-.2.37,0,.67-.05.89-.1.5-.1.62-.64.72-1.36.12-1.04.12-2.99.12-5.26v-4.35"/>
  <path class="st1" d="M202.44,235.63c-.4-.17-.47-.3-.47-.84,0-1.36.1-2.84.12-3.24.02-.37.1-.64.3-.64.22,0,.25.22.25.42,0,.32.1.84.22,1.26.54,1.83,2,2.5,3.53,2.5,2.22,0,3.31-1.51,3.31-2.82,0-1.21-.37-2.35-2.42-3.95l-1.14-.89c-2.72-2.12-3.66-3.85-3.66-5.85,0-2.72,2.27-4.67,5.71-4.67,1.61,0,2.64.25,3.29.42.22.05.35.12.35.3,0,.32-.1,1.04-.1,2.96,0,.54-.07.74-.27.74-.17,0-.25-.15-.25-.44,0-.22-.12-.99-.64-1.63-.37-.47-1.09-1.21-2.69-1.21-1.83,0-2.94,1.06-2.94,2.55,0,1.13.57,2,2.62,3.56l.69.52c2.99,2.25,4.05,3.95,4.05,6.3,0,1.43-.54,3.14-2.32,4.3-1.24.79-2.62,1.01-3.93,1.01-1.43,0-2.55-.17-3.61-.64"/>
  <path class="st1" d="M214.24,226.59c0-4.23,2.79-9.68,10.2-9.68,6.15,0,9.98,3.58,9.98,9.24s-3.95,10.13-10.23,10.13c-7.09,0-9.96-5.31-9.96-9.68M230.97,227.06c0-5.53-3.19-8.97-7.24-8.97-2.84,0-6.08,1.58-6.08,7.73,0,5.14,2.84,9.21,7.58,9.21,1.73,0,5.73-.84,5.73-7.98Z"/>
  <path class="st1" d="M236.92,224.42c0-3.76,0-4.45-.05-5.24-.05-.84-.25-1.24-1.06-1.41-.2-.05-.62-.07-.96-.07-.27,0-.42-.05-.42-.22s.17-.22.54-.22c1.31,0,2.87.07,3.61.07.59,0,2.15-.07,3.04-.07.37,0,.54.05.54.22s-.15.22-.4.22c-.27,0-.42.02-.72.07-.67.12-.86.54-.91,1.41-.05.79-.05,1.48-.05,5.24v3.46c0,3.58.72,5.09,1.93,6.08,1.11.91,2.25,1.01,3.09,1.01,1.09,0,2.42-.35,3.41-1.33,1.36-1.36,1.43-3.58,1.43-6.13v-3.09c0-3.76,0-4.45-.05-5.24-.05-.84-.25-1.24-1.06-1.41-.2-.05-.62-.07-.89-.07s-.42-.05-.42-.22.17-.22.52-.22c1.26,0,2.82.07,2.84.07.3,0,1.85-.07,2.82-.07.35,0,.52.05.52.22s-.15.22-.45.22c-.27,0-.42.02-.72.07-.67.12-.86.54-.91,1.41-.05.79-.05,1.48-.05,5.24v2.64c0,2.74-.27,5.66-2.35,7.44-1.75,1.51-3.53,1.78-5.14,1.78-1.31,0-3.68-.07-5.48-1.7-1.26-1.14-2.2-2.96-2.2-6.55v-3.61"/>
  <path class="st1" d="M257.79,224.42c0-3.76,0-4.45-.05-5.24-.05-.84-.25-1.23-1.06-1.41-.2-.05-.62-.07-.96-.07-.27,0-.42-.05-.42-.22s.17-.22.54-.22c1.31,0,2.87.07,3.38.07.84,0,2.72-.07,3.48-.07,1.55,0,3.21.15,4.55,1.06.69.47,1.68,1.73,1.68,3.39,0,1.83-.76,3.51-3.26,5.53,2.2,2.77,3.9,4.97,5.36,6.5,1.38,1.43,2.4,1.61,2.77,1.68.27.05.49.07.69.07s.3.07.3.2c0,.2-.17.25-.47.25h-2.35c-1.38,0-2-.12-2.64-.47-1.06-.57-2-1.73-3.38-3.63-.99-1.36-2.12-3.04-2.45-3.41-.12-.15-.27-.17-.44-.17l-2.15-.05c-.12,0-.2.05-.2.2v.35c0,2.3,0,4.25.12,5.29.07.72.22,1.26.96,1.36.37.05.91.1,1.21.1.2,0,.3.07.3.2,0,.17-.17.25-.49.25-1.43,0-3.26-.07-3.63-.07-.47,0-2.02.07-3.01.07-.32,0-.49-.07-.49-.25,0-.12.1-.2.4-.2.37,0,.67-.05.89-.1.49-.1.62-.64.72-1.36.12-1.04.12-2.99.12-5.26v-4.35M260.7,226.37c0,.27.05.37.22.44.52.17,1.26.25,1.88.25.99,0,1.31-.1,1.75-.42.74-.54,1.46-1.68,1.46-3.71,0-3.51-2.32-4.52-3.78-4.52-.62,0-1.06.02-1.31.1-.17.05-.22.15-.22.35v7.51Z"/>
  <path class="st1" d="M275.45,233.58c-2.42-2.12-3.07-4.89-3.07-7.29,0-1.68.52-4.6,2.89-6.77,1.78-1.63,4.13-2.62,7.81-2.62,1.53,0,2.44.1,3.58.25.94.12,1.73.35,2.47.42.27.02.37.15.37.3,0,.2-.07.49-.12,1.36-.05.82-.02,2.17-.07,2.67-.02.37-.07.57-.3.57-.2,0-.25-.2-.25-.54-.02-.77-.35-1.63-.96-2.27-.81-.86-2.74-1.53-5.01-1.53-2.15,0-3.56.54-4.64,1.53-1.81,1.65-2.27,4-2.27,6.4,0,5.88,4.47,8.79,7.78,8.79,2.2,0,3.53-.25,4.52-1.38.42-.47.74-1.19.84-1.63.07-.4.12-.49.32-.49.17,0,.22.17.22.37,0,.3-.3,2.45-.54,3.29-.12.42-.22.54-.64.72-.99.39-2.87.57-4.45.57-3.38,0-6.22-.74-8.47-2.69"/>
  <path class="st1" d="M292.99,224.42c0-3.76,0-4.45-.05-5.24-.05-.84-.25-1.24-1.06-1.41-.2-.05-.62-.07-.96-.07-.27,0-.42-.05-.42-.22s.17-.22.54-.22c.67,0,1.38.02,2,.02.64.02,1.21.05,1.56.05.79,0,5.71,0,6.18-.02.47-.05.87-.1,1.06-.15.12-.02.27-.1.39-.1s.15.1.15.22c0,.17-.12.47-.2,1.61-.03.25-.07,1.33-.12,1.63-.02.12-.07.27-.25.27s-.22-.12-.22-.35c0-.17-.02-.59-.15-.89-.17-.45-.42-.74-1.65-.89-.42-.05-3.01-.1-3.51-.1-.12,0-.17.07-.17.25v6.25c0,.17.03.27.17.27.54,0,3.39,0,3.95-.05.59-.05.96-.12,1.19-.37.17-.2.27-.32.39-.32.1,0,.17.05.17.2s-.1.54-.2,1.8c-.02.49-.1,1.48-.1,1.65,0,.2,0,.47-.22.47-.17,0-.22-.1-.22-.22-.02-.25-.02-.57-.1-.89-.12-.49-.47-.86-1.38-.96-.47-.05-2.91-.07-3.51-.07-.12,0-.15.1-.15.25v1.95c0,.84-.02,3.11,0,3.83.05,1.7.45,2.08,2.96,2.08.64,0,1.68,0,2.32-.3.64-.3.94-.82,1.11-1.83.05-.27.1-.37.27-.37.2,0,.2.2.2.44,0,.57-.2,2.25-.32,2.74-.17.64-.4.64-1.33.64-1.85,0-3.21-.05-4.27-.08-1.06-.05-1.83-.07-2.57-.07-.27,0-.82,0-1.41.02-.57,0-1.21.05-1.7.05-.32,0-.49-.07-.49-.25,0-.12.1-.2.39-.2.37,0,.67-.05.89-.1.49-.1.62-.64.72-1.36.12-1.04.12-2.99.12-5.26v-4.35"/>
  <path class="st1" d="M306,235.63c-.39-.17-.47-.3-.47-.84,0-1.36.1-2.84.12-3.24.02-.37.1-.64.3-.64.22,0,.25.22.25.42,0,.32.1.84.22,1.26.55,1.83,2,2.5,3.53,2.5,2.22,0,3.31-1.51,3.31-2.82,0-1.21-.37-2.35-2.42-3.95l-1.14-.89c-2.72-2.12-3.66-3.85-3.66-5.85,0-2.72,2.27-4.67,5.71-4.67,1.61,0,2.64.25,3.29.42.22.05.35.12.35.3,0,.32-.1,1.04-.1,2.96,0,.54-.07.74-.27.74-.17,0-.25-.15-.25-.44,0-.22-.12-.99-.64-1.63-.37-.47-1.09-1.21-2.69-1.21-1.83,0-2.94,1.06-2.94,2.55,0,1.13.57,2,2.62,3.56l.69.52c2.99,2.25,4.05,3.95,4.05,6.3,0,1.43-.54,3.14-2.32,4.3-1.23.79-2.62,1.01-3.93,1.01-1.43,0-2.54-.17-3.61-.64"/>
  <path class="st1" d="M329.27,222.35c0-4.43,0-5.25-.06-6.18-.06-.99-.29-1.46-1.26-1.66-.23-.06-.73-.09-1.14-.09-.32,0-.5-.06-.5-.26s.2-.26.64-.26c1.55,0,3.38.09,4.2.09.91,0,2.74-.09,4.49-.09,3.65,0,8.52,0,11.7,3.33,1.46,1.52,2.83,3.94,2.83,7.41,0,3.68-1.55,6.48-3.18,8.14-1.34,1.37-4.38,3.44-9.77,3.44-1.05,0-2.25-.09-3.35-.17-1.11-.09-2.13-.18-2.86-.18-.32,0-.96,0-1.66.03-.67,0-1.43.06-2.01.06-.38,0-.58-.09-.58-.29,0-.14.12-.23.47-.23.44,0,.79-.06,1.05-.12.58-.12.73-.76.85-1.61.15-1.23.15-3.53.15-6.21v-5.14M332.91,225.56c0,3.09.03,5.34.06,5.89.03.73.09,1.9.32,2.22.38.55,1.52,1.17,3.82,1.17,2.97,0,4.96-.58,6.71-2.1,1.87-1.6,2.45-4.26,2.45-7.26,0-3.71-1.55-6.1-2.8-7.29-2.68-2.57-6.01-2.92-8.29-2.92-.58,0-1.66.09-1.9.2-.26.12-.35.26-.35.58-.03.99-.03,3.53-.03,5.83v3.68Z"/>
  <path class="st1" d="M353.65,224.42c0-3.76,0-4.45-.05-5.24-.05-.84-.3-1.26-.84-1.38-.27-.08-.59-.1-.89-.1-.25,0-.39-.05-.39-.25,0-.15.2-.2.59-.2.94,0,2.49.07,3.21.07.62,0,2.07-.07,3.01-.07.32,0,.52.05.52.2,0,.2-.15.25-.4.25s-.44.02-.74.07c-.67.12-.86.54-.91,1.41-.05.79-.05,1.48-.05,5.24v4.35c0,2.4,0,4.35.1,5.41.07.67.25,1.11.99,1.21.35.05.89.1,1.26.1.27,0,.4.07.4.2,0,.17-.2.25-.47.25-1.63,0-3.19-.07-3.85-.07-.57,0-2.12.07-3.11.07-.32,0-.49-.07-.49-.25,0-.12.1-.2.4-.2.37,0,.67-.05.89-.1.49-.1.64-.52.72-1.24.12-1.04.12-2.99.12-5.39v-4.35"/>
  <path class="st1" d="M361.92,219.68c-.57-1.36-.99-1.63-1.88-1.88-.37-.1-.77-.1-.96-.1-.22,0-.3-.07-.3-.22,0-.2.27-.22.64-.22,1.31,0,2.72.07,3.58.07.62,0,1.8-.07,3.04-.07.3,0,.57.05.57.22s-.15.22-.37.22c-.4,0-.77.02-.96.17-.17.12-.25.3-.25.52,0,.32.22,1.01.57,1.9l4.25,11.22h.1c1.06-2.72,4.27-10.67,4.86-12.3.12-.32.22-.69.22-.91,0-.2-.1-.4-.32-.47-.3-.1-.67-.12-.99-.12-.22,0-.42-.02-.42-.2,0-.2.22-.25.69-.25,1.23,0,2.27.07,2.59.07.42,0,1.58-.07,2.32-.07.32,0,.52.05.52.22s-.15.22-.4.22-.77,0-1.21.3c-.32.22-.69.64-1.36,2.22-.96,2.32-1.63,3.66-2.97,6.69-1.58,3.61-2.74,6.3-3.28,7.53-.64,1.43-.79,1.83-1.14,1.83-.32,0-.47-.35-.94-1.51l-6.22-15.09"/>
  <path class="st1" d="M381.46,224.42c0-3.76,0-4.45-.05-5.24-.05-.84-.29-1.26-.84-1.38-.27-.08-.59-.1-.89-.1-.25,0-.39-.05-.39-.25,0-.15.2-.2.59-.2.94,0,2.5.07,3.21.07.62,0,2.08-.07,3.02-.07.32,0,.52.05.52.2,0,.2-.15.25-.4.25s-.44.02-.74.07c-.67.12-.86.54-.91,1.41-.05.79-.05,1.48-.05,5.24v4.35c0,2.4,0,4.35.1,5.41.07.67.25,1.11.99,1.21.35.05.89.1,1.26.1.27,0,.39.07.39.2,0,.17-.2.25-.47.25-1.63,0-3.19-.07-3.85-.07-.57,0-2.12.07-3.11.07-.32,0-.49-.07-.49-.25,0-.12.1-.2.39-.2.37,0,.67-.05.89-.1.49-.1.64-.52.71-1.24.12-1.04.12-2.99.12-5.39v-4.35"/>
  <path class="st1" d="M390.03,235.63c-.4-.17-.47-.3-.47-.84,0-1.36.1-2.84.12-3.24.02-.37.1-.64.3-.64.22,0,.25.22.25.42,0,.32.1.84.22,1.26.54,1.83,2,2.5,3.53,2.5,2.22,0,3.31-1.51,3.31-2.82,0-1.21-.37-2.35-2.42-3.95l-1.14-.89c-2.72-2.12-3.66-3.85-3.66-5.85,0-2.72,2.27-4.67,5.71-4.67,1.6,0,2.64.25,3.28.42.22.05.34.12.34.3,0,.32-.1,1.04-.1,2.96,0,.54-.07.74-.27.74-.17,0-.25-.15-.25-.44,0-.22-.12-.99-.64-1.63-.37-.47-1.09-1.21-2.69-1.21-1.83,0-2.94,1.06-2.94,2.55,0,1.13.57,2,2.62,3.56l.69.52c2.99,2.25,4.05,3.95,4.05,6.3,0,1.43-.54,3.14-2.32,4.3-1.23.79-2.62,1.01-3.93,1.01-1.43,0-2.55-.17-3.61-.64"/>
  <path class="st1" d="M404.53,224.42c0-3.76,0-4.45-.05-5.24-.05-.84-.3-1.26-.84-1.38-.27-.08-.59-.1-.89-.1-.25,0-.39-.05-.39-.25,0-.15.2-.2.59-.2.94,0,2.49.07,3.21.07.62,0,2.07-.07,3.01-.07.32,0,.52.05.52.2,0,.2-.15.25-.4.25s-.44.02-.74.07c-.67.12-.86.54-.91,1.41-.05.79-.05,1.48-.05,5.24v4.35c0,2.4,0,4.35.1,5.41.07.67.25,1.11.99,1.21.35.05.89.1,1.26.1.27,0,.39.07.39.2,0,.17-.2.25-.47.25-1.63,0-3.19-.07-3.85-.07-.57,0-2.12.07-3.11.07-.32,0-.49-.07-.49-.25,0-.12.1-.2.4-.2.37,0,.67-.05.89-.1.49-.1.64-.52.72-1.24.12-1.04.12-2.99.12-5.39v-4.35"/>
  <path class="st1" d="M410.91,226.59c0-4.23,2.79-9.68,10.2-9.68,6.15,0,9.98,3.58,9.98,9.24s-3.95,10.13-10.23,10.13c-7.09,0-9.96-5.31-9.96-9.68M427.63,227.06c0-5.53-3.19-8.97-7.24-8.97-2.84,0-6.08,1.58-6.08,7.73,0,5.14,2.84,9.21,7.58,9.21,1.73,0,5.73-.84,5.73-7.98Z"/>
  <path class="st1" d="M435.78,232.57c.05,1.93.37,2.57.86,2.74.42.15.89.17,1.28.17.27,0,.42.05.42.2,0,.2-.22.25-.57.25-1.61,0-2.59-.07-3.06-.07-.22,0-1.38.07-2.67.07-.32,0-.54-.02-.54-.25,0-.15.15-.2.4-.2.32,0,.76-.02,1.11-.12.64-.2.74-.91.77-3.06l.22-14.62c0-.49.08-.84.32-.84.27,0,.49.32.91.77.3.32,4.05,4.35,7.66,7.93,1.68,1.68,5.02,5.24,5.44,5.63h.12l-.25-11.09c-.03-1.51-.25-1.98-.84-2.22-.37-.15-.96-.15-1.31-.15-.3,0-.39-.07-.39-.22,0-.2.27-.22.64-.22,1.28,0,2.47.07,2.99.07.27,0,1.21-.07,2.42-.07.32,0,.57.02.57.22,0,.15-.15.22-.45.22-.25,0-.45,0-.74.07-.69.2-.89.72-.91,2.1l-.27,15.59c0,.54-.1.77-.32.77-.27,0-.57-.27-.84-.54-1.56-1.48-4.72-4.72-7.29-7.26-2.69-2.67-5.43-5.76-5.88-6.23h-.08l.27,10.38"/>
  <rect class="st0" x="10.38" y="197.64" width="470.43" height="3.75"/>
  <path class="st0" d="M482.96,199.53c0,1.03-.96,1.87-2.15,1.87s-2.15-.84-2.15-1.87.96-1.87,2.15-1.87,2.15.84,2.15,1.87"/>
  <path class="st0" d="M12.52,199.52c0,1.03-.96,1.87-2.15,1.87s-2.15-.84-2.15-1.87.96-1.87,2.15-1.87,2.15.84,2.15,1.87"/>
  <path class="st1" d="M98.35,80.77s7.47,1.93,4.15-4.15c0,0-1.66-3.32-3.46-4.7,0,0,4.56.69,7.47-3.04,0,0,8.71-7.47,18.39-1.94,0,0,2.76,1.52,5.53,4.15,0,0-11.75-9.68-22.26-.97,0,0-2.9,3.18-4.7,3.32,0,0,6.92,10.23-5.11,7.33"/>
  <path class="st1" d="M170.12,89.48l-41.48-15.62s-1.93-.55-4.42-2.9c0,0-4.15-2.76-8.3-.69,0,0,1.38-.69,2.21.28,0,0,.14,4.15,4.84,2.35,0,0,1.11-.28,1.93.69,0,0,.28.41,1.66.83,1.38.42,17.84,5.39,47.43,17.98,0,0,3.18,1.24,3.04,3.46,0,0,.42-4.28-6.91-6.36"/>
  <path class="st1" d="M130.98,71.36s19.5,7.05,44.38,18.25c0,0,4.42,2.35,2.35,7.46,0,0,4.15-6.36-3.46-9.54,0,0-25.17-11.89-43.28-16.18"/>
  <path class="st1" d="M173.85,93.21s-7.33,3.87-41.21-8.44c0,0-.97.41-.42,1.24,0,0-8.16-6.22-17.84-6.22,0,0-7.19-1.8-3.87-3.18,0,0,3.18-1.93,5.67-1.24,0,0,3.32,2.07,7.47,1.8,0,0,3.32.14,6.64,1.11"/>
  <path class="st1" d="M132.23,86.57s1.66,11.2-29.45,15.9c0,0,33.46-.69,29.45-15.9"/>
  <path class="st1" d="M103.19,102.75s-7.72,14.44-63.47,3.61c0,0,55.88,16.33,63.47-3.61"/>
  <path class="st1" d="M95.94,30.2s-21.24,26.86,1.06,49.31c0,0-31.41-15.63-1.06-49.31"/>
  <path class="st1" d="M65.89,4.55l1.21-4.55c8.5,16.08,26.55,21.7,26.55,21.7,6.37,2.28,2.88,7.89,2.88,7.89,0,0,.61-3.19-3.94-4.25,0,0-18.97-7.43-26.71-20.79"/>
  <path class="st1" d="M93.74,29.89s-21.14,18.31-15.03,42.45c0,0-13.68-20.3,15.03-42.45"/>
  <path class="st1" d="M9.97,86.28s14.89,12.72,44.96-3.97c0,0-25.95,10.52-39.43,1.53"/>
  <path class="st1" d="M60.21,10.33s7.2,4.26,16.05,6.22c0,0-4.58.98-19.32-2.95l3.28-3.27"/>
  <path class="st1" d="M51.37,17.86s6.88,1.31,19.65,1.31c0,0-14.41,1.96-21.61,1.96l1.96-3.27"/>
  <path class="st1" d="M61.34,21.86s-43.88,19.32-19.32,59.6c0,0-13.01-7.64-12.35-28.6l-3.87.83s7.71-20.04,35.54-31.83"/>
  <path class="st1" d="M41.73,30.01s6.82-4.85,15.47-7.55c0,0-4.65-.6-19.01,4.56l3.54,2.99"/>
  <path class="st1" d="M43.7,83.24s-1.51-8.23-.3-17.21c0,0-2.5,3.96-3.9,19.15l4.2-1.94"/>
  <path class="st1" d="M47.58,105.7s-12.44-6.88-35.37,3.6l-3.27-.98s15.39-12.12,38.64-2.62"/>
  <path class="st1" d="M9.11,86.75s-12.64,11.91-1.81,19.5l-4.69.72s-9.02-9.03,6.5-20.22"/>
  <path class="st1" d="M106.86,79.17s1.31,2.95,8.51,4.59c0,0-9.5,0-4.59,1.31,0,0,19.65,2.95,10.48,10.48l-4.26.98s13.1-5.89-8.51-11.13"/>
  <path class="st1" d="M84.92,73.6s14.08,14.41-10.15,10.81c0,0-7.53-2.62-21.61,1.97,0,0,37.99-.98,31.77-12.77"/>
  <path class="st1" d="M98.56,113.54s-8.96,1.48,5.98,18.44c0,0-17-29.28-5.98-18.44"/>
  <path class="st1" d="M135.42,86.96s24.47,8.1,36.14,6.15c0,0-10.69,4.41-36.14-6.15"/>
  <path class="st1" d="M12.73,90.4s-9.65,4-9.63,11.64c0,0-3.74-7.28,9.63-11.64"/>
  <path class="st1" d="M125.09,176.35l4.57,1.61c-8.97-17.08-6.72-30.83-6.72-30.83,1.38-9-1.92-10.52-1.92-10.52,0,0,1.38,2.75.92,7.46,0,0-4.03,18.26,3.15,32.28"/>
  <path class="st1" d="M102.63,106.26s-3.25,13.86,17.2,29.28c0,0-24.82-8.95-17.2-29.28"/>
  <path class="st1" d="M101.84,159.78s-53.52-1.9-50.72-50.23c0,0-5.49,13.97,4.35,32.8l-.56,1.95s18.3,17.79,46.93,15.48"/>
  <path class="st1" d="M120.41,155.44s-3.99,9.95-2.04,18.95c0,0-1.04-1.7-3.25-3.88,0,0-1.5-1.9,5.29-15.07"/>
  <path class="st1" d="M115.77,154.45s-5.6,7.25-5.6,15.22c0,0-.99-1.68-2.96-3.49,0,0-.23-2.52,8.56-11.73"/>
  <path class="st0" d="M139.78,173.89c0-2.99,0-3.54-.04-4.17-.04-.67-.2-.99-.85-1.12-.16-.04-.49-.06-.77-.06-.22,0-.33-.04-.33-.18s.14-.18.43-.18c1.04,0,2.29.06,2.84.06.61,0,1.85-.06,3.03-.06,2.46,0,5.75,0,7.9,2.25.99,1.02,1.91,2.66,1.91,5,0,2.48-1.04,4.37-2.15,5.5-.91.93-2.95,2.32-6.6,2.32-.71,0-1.52-.06-2.27-.12-.75-.06-1.44-.12-1.93-.12-.22,0-.65,0-1.12.02-.45,0-.96.04-1.36.04-.26,0-.39-.06-.39-.2,0-.1.08-.16.32-.16.29,0,.53-.04.71-.08.39-.08.49-.51.57-1.08.1-.83.1-2.38.1-4.19v-3.47M142.24,176.06c0,2.09.02,3.61.04,3.98.02.49.06,1.28.22,1.5.26.37,1.02.79,2.58.79,2.01,0,3.35-.39,4.53-1.42,1.26-1.08,1.65-2.88,1.65-4.9,0-2.5-1.04-4.12-1.89-4.92-1.81-1.73-4.06-1.97-5.6-1.97-.39,0-1.12.06-1.28.14-.18.08-.24.18-.24.39-.02.67-.02,2.38-.02,3.94v2.48Z"/>
  <path class="st0" d="M156.24,175.3c0-2.53,0-3-.03-3.53-.03-.57-.17-.83-.72-.95-.13-.03-.42-.05-.65-.05-.18,0-.28-.03-.28-.15s.12-.15.37-.15c.45,0,.93.02,1.35.02.43.02.82.03,1.05.03.53,0,3.85,0,4.17-.02.32-.03.58-.07.72-.1.08-.02.18-.07.27-.07s.1.07.1.15c0,.12-.08.32-.13,1.08-.02.17-.05.9-.08,1.1-.02.08-.05.18-.17.18s-.15-.08-.15-.23c0-.12-.02-.4-.1-.6-.12-.3-.28-.5-1.12-.6-.28-.03-2.03-.07-2.37-.07-.08,0-.12.05-.12.17v4.22c0,.12.02.18.12.18.37,0,2.28,0,2.67-.03.4-.03.65-.08.8-.25.12-.13.18-.22.27-.22.07,0,.12.03.12.13s-.07.37-.13,1.22c-.02.33-.07,1-.07,1.12,0,.13,0,.32-.15.32-.12,0-.15-.07-.15-.15-.02-.17-.02-.38-.07-.6-.08-.33-.32-.58-.93-.65-.32-.03-1.97-.05-2.37-.05-.08,0-.1.07-.1.17v1.32c0,.57-.02,2.1,0,2.58.03,1.15.3,1.4,2,1.4.43,0,1.13,0,1.57-.2.43-.2.63-.55.75-1.23.03-.18.07-.25.18-.25.13,0,.13.13.13.3,0,.38-.13,1.52-.22,1.85-.12.43-.27.43-.9.43-1.25,0-2.17-.03-2.88-.05-.72-.03-1.23-.05-1.73-.05-.18,0-.55,0-.95.02-.38,0-.82.03-1.15.03-.22,0-.33-.05-.33-.17,0-.08.07-.13.27-.13.25,0,.45-.03.6-.07.33-.07.42-.43.48-.92.08-.7.08-2.02.08-3.55v-2.93"/>
  <path class="st0" d="M165.94,175.3c0-2.53,0-3-.03-3.53-.03-.57-.17-.83-.72-.95-.13-.03-.42-.05-.65-.05-.18,0-.28-.03-.28-.15s.12-.15.37-.15c.88,0,1.93.05,2.4.05.68,0,1.65-.05,2.42-.05,2.08,0,2.83.7,3.1.95.37.35.83,1.1.83,1.98,0,2.37-1.73,4.03-4.1,4.03-.08,0-.27,0-.35-.02-.08-.02-.2-.03-.2-.15,0-.13.12-.18.47-.18.93,0,2.23-1.05,2.23-2.75,0-.55-.05-1.67-.98-2.5-.6-.55-1.28-.65-1.67-.65-.25,0-.5.02-.65.07-.08.03-.13.13-.13.32v6.66c0,1.53,0,2.85.08,3.57.05.47.15.83.65.9.23.03.6.07.85.07.18,0,.27.05.27.13,0,.12-.13.17-.32.17-1.1,0-2.15-.05-2.58-.05-.38,0-1.43.05-2.1.05-.22,0-.33-.05-.33-.17,0-.08.07-.13.27-.13.25,0,.45-.03.6-.07.33-.07.42-.43.48-.92.08-.7.08-2.02.08-3.55v-2.93"/>
  <path class="st0" d="M176.27,178.71c-.08,0-.12.03-.15.13l-.9,2.38c-.17.42-.25.82-.25,1.02,0,.3.15.52.67.52h.25c.2,0,.25.03.25.13,0,.13-.1.17-.28.17-.53,0-1.25-.05-1.77-.05-.18,0-1.1.05-1.97.05-.22,0-.32-.03-.32-.17,0-.1.07-.13.2-.13.15,0,.38-.02.52-.03.77-.1,1.08-.67,1.42-1.5l4.18-10.46c.2-.48.3-.67.47-.67.15,0,.25.15.42.53.4.92,3.07,7.71,4.13,10.25.63,1.5,1.12,1.73,1.47,1.82.25.05.5.07.7.07.13,0,.22.02.22.13,0,.13-.15.17-.77.17s-1.81,0-3.15-.03c-.3-.02-.5-.02-.5-.13,0-.1.07-.13.23-.15.12-.03.23-.18.15-.38l-1.33-3.53c-.03-.08-.08-.12-.17-.12h-3.72M179.67,177.88c.08,0,.1-.05.08-.1l-1.5-4.11c-.02-.07-.03-.15-.08-.15s-.08.08-.1.15l-1.53,4.1c-.02.07,0,.12.07.12h3.07Z"/>
  <path class="st0" d="M186.44,175.3c0-2.53,0-3-.03-3.53-.03-.57-.17-.83-.72-.95-.13-.03-.42-.05-.65-.05-.18,0-.28-.03-.28-.15s.12-.15.37-.15c.88,0,1.93.05,2.28.05.57,0,1.83-.05,2.35-.05,1.05,0,2.17.1,3.07.72.47.32,1.13,1.17,1.13,2.28,0,1.23-.52,2.37-2.2,3.73,1.48,1.87,2.63,3.35,3.62,4.38.93.97,1.62,1.08,1.87,1.13.18.03.33.05.47.05s.2.05.2.13c0,.13-.12.17-.32.17h-1.58c-.93,0-1.35-.08-1.78-.32-.72-.38-1.35-1.17-2.28-2.45-.67-.92-1.43-2.05-1.65-2.3-.08-.1-.18-.12-.3-.12l-1.45-.03c-.08,0-.13.03-.13.13v.23c0,1.55,0,2.87.08,3.57.05.48.15.85.65.92.25.03.62.07.82.07.13,0,.2.05.2.13,0,.12-.12.17-.33.17-.97,0-2.2-.05-2.45-.05-.32,0-1.37.05-2.03.05-.22,0-.33-.05-.33-.17,0-.08.07-.13.27-.13.25,0,.45-.03.6-.07.33-.07.42-.43.48-.92.08-.7.08-2.02.08-3.55v-2.93M188.4,176.61c0,.18.03.25.15.3.35.12.85.17,1.27.17.67,0,.88-.07,1.18-.28.5-.37.98-1.13.98-2.5,0-2.37-1.57-3.05-2.55-3.05-.42,0-.72.02-.88.07-.12.03-.15.1-.15.23v5.07Z"/>
  <path class="st0" d="M199.77,171.4l-2.48.07c-.97.03-1.37.12-1.62.48-.17.25-.25.45-.28.58-.03.13-.08.2-.18.2-.12,0-.15-.08-.15-.27,0-.27.32-1.78.35-1.92.05-.22.1-.32.2-.32.13,0,.3.17.72.2.48.05,1.12.08,1.67.08h6.6c.53,0,.9-.05,1.15-.08.25-.05.38-.08.45-.08.12,0,.13.1.13.35,0,.35-.05,1.5-.05,1.93-.02.17-.05.27-.15.27-.13,0-.17-.08-.18-.33l-.02-.18c-.03-.43-.48-.9-1.97-.93l-2.1-.05v6.83c0,1.53,0,2.85.08,3.57.05.47.15.83.65.9.23.03.6.07.85.07.18,0,.27.05.27.13,0,.12-.13.17-.32.17-1.1,0-2.15-.05-2.61-.05-.38,0-1.43.05-2.1.05-.22,0-.33-.05-.33-.17,0-.08.07-.13.27-.13.25,0,.45-.03.6-.07.33-.07.43-.43.48-.92.08-.7.08-2.02.08-3.55v-6.83"/>
  <path class="st0" d="M208.92,170.53c.05-.28.15-.43.28-.43s.23.08.45.52l4.55,9.4,4.53-9.51c.13-.27.22-.4.37-.4s.25.17.3.52l1.52,10.3c.15,1.05.32,1.53.82,1.68.48.15.82.17,1.03.17.15,0,.27.02.27.12,0,.13-.2.18-.43.18-.42,0-2.72-.05-3.38-.1-.38-.03-.48-.08-.48-.18,0-.08.07-.13.18-.18.1-.03.15-.25.08-.71l-1-7.33h-.07l-3.63,7.57c-.38.78-.47.93-.62.93s-.32-.33-.58-.83c-.4-.77-1.72-3.32-1.92-3.78-.15-.35-1.15-2.45-1.73-3.7h-.07l-.87,6.63c-.03.3-.05.52-.05.78,0,.32.22.47.5.53.3.07.53.08.7.08.13,0,.25.03.25.12,0,.15-.15.18-.4.18-.7,0-1.45-.05-1.75-.05-.32,0-1.12.05-1.65.05-.17,0-.3-.03-.3-.18,0-.08.1-.12.27-.12.13,0,.25,0,.5-.05.47-.1.6-.75.68-1.32l1.65-10.86"/>
  <path class="st0" d="M224.85,175.3c0-2.53,0-3-.03-3.53-.03-.57-.17-.83-.72-.95-.13-.03-.42-.05-.65-.05-.18,0-.28-.03-.28-.15s.12-.15.37-.15c.45,0,.93.02,1.35.02.43.02.82.03,1.05.03.53,0,3.85,0,4.17-.02.32-.03.58-.07.72-.1.08-.02.18-.07.27-.07s.1.07.1.15c0,.12-.08.32-.13,1.08-.02.17-.05.9-.08,1.1-.02.08-.05.18-.17.18s-.15-.08-.15-.23c0-.12-.02-.4-.1-.6-.12-.3-.28-.5-1.12-.6-.28-.03-2.03-.07-2.37-.07-.08,0-.12.05-.12.17v4.22c0,.12.02.18.12.18.37,0,2.28,0,2.67-.03.4-.03.65-.08.8-.25.12-.13.18-.22.27-.22.07,0,.12.03.12.13s-.07.37-.13,1.22c-.02.33-.07,1-.07,1.12,0,.13,0,.32-.15.32-.12,0-.15-.07-.15-.15-.02-.17-.02-.38-.07-.6-.08-.33-.32-.58-.93-.65-.32-.03-1.97-.05-2.37-.05-.08,0-.1.07-.1.17v1.32c0,.57-.02,2.1,0,2.58.03,1.15.3,1.4,2,1.4.43,0,1.13,0,1.57-.2.43-.2.63-.55.75-1.23.03-.18.07-.25.18-.25.13,0,.13.13.13.3,0,.38-.13,1.52-.22,1.85-.12.43-.27.43-.9.43-1.25,0-2.17-.03-2.88-.05-.72-.03-1.23-.05-1.73-.05-.18,0-.55,0-.95.02-.38,0-.82.03-1.15.03-.22,0-.33-.05-.33-.17,0-.08.07-.13.27-.13.25,0,.45-.03.6-.07.33-.07.42-.43.48-.92.08-.7.08-2.02.08-3.55v-2.93"/>
  <path class="st0" d="M235.48,180.8c.03,1.3.25,1.73.58,1.85.28.1.6.12.87.12.18,0,.28.03.28.13,0,.13-.15.17-.38.17-1.08,0-1.75-.05-2.07-.05-.15,0-.93.05-1.8.05-.22,0-.37-.02-.37-.17,0-.1.1-.13.27-.13.22,0,.52-.02.75-.08.43-.13.5-.62.52-2.07l.15-9.86c0-.33.05-.57.22-.57.18,0,.33.22.62.52.2.22,2.73,2.93,5.17,5.35,1.13,1.13,3.38,3.53,3.67,3.8h.08l-.17-7.48c-.02-1.02-.17-1.33-.57-1.5-.25-.1-.65-.1-.88-.1-.2,0-.27-.05-.27-.15,0-.13.18-.15.43-.15.87,0,1.67.05,2.02.05.18,0,.82-.05,1.63-.05.22,0,.38.02.38.15,0,.1-.1.15-.3.15-.17,0-.3,0-.5.05-.47.13-.6.48-.62,1.42l-.18,10.51c0,.37-.07.52-.22.52-.18,0-.38-.18-.57-.37-1.05-1-3.18-3.18-4.92-4.9-1.82-1.8-3.67-3.88-3.97-4.2h-.05l.18,7"/>
  <path class="st0" d="M251.71,171.4l-2.48.07c-.97.03-1.37.12-1.62.48-.17.25-.25.45-.28.58-.03.13-.08.2-.18.2-.12,0-.15-.08-.15-.27,0-.27.32-1.78.35-1.92.05-.22.1-.32.2-.32.13,0,.3.17.72.2.48.05,1.12.08,1.67.08h6.6c.53,0,.9-.05,1.15-.08.25-.05.38-.08.45-.08.12,0,.13.1.13.35,0,.35-.05,1.5-.05,1.93-.02.17-.05.27-.15.27-.13,0-.17-.08-.18-.33l-.02-.18c-.03-.43-.48-.9-1.96-.93l-2.1-.05v6.83c0,1.53,0,2.85.08,3.57.05.47.15.83.65.9.23.03.6.07.85.07.18,0,.27.05.27.13,0,.12-.13.17-.32.17-1.1,0-2.15-.05-2.62-.05-.38,0-1.43.05-2.1.05-.22,0-.33-.05-.33-.17,0-.08.07-.13.27-.13.25,0,.45-.03.6-.07.33-.07.43-.43.48-.92.08-.7.08-2.02.08-3.55v-6.83"/>
  <path class="st0" d="M262.84,176.76c0-2.85,1.88-6.53,6.88-6.53,4.15,0,6.73,2.42,6.73,6.23s-2.67,6.83-6.9,6.83c-4.78,0-6.71-3.58-6.71-6.53M274.13,177.08c0-3.73-2.15-6.05-4.88-6.05-1.92,0-4.1,1.07-4.1,5.22,0,3.47,1.92,6.21,5.11,6.21,1.17,0,3.87-.57,3.87-5.38Z"/>
  <path class="st0" d="M280.79,178.23c0,1.6,0,2.85.08,3.55.05.48.15.85.65.92.23.03.6.07.83.07.22,0,.28.05.28.13,0,.12-.12.17-.37.17-1.05,0-2.1-.05-2.53-.05s-1.48.05-2.11.05c-.23,0-.35-.03-.35-.17,0-.08.07-.13.25-.13.25,0,.45-.03.6-.07.33-.07.42-.43.48-.92.08-.7.08-1.95.08-3.55v-2.93c0-2.53,0-3-.03-3.53-.03-.57-.17-.83-.72-.95-.13-.03-.42-.05-.65-.05-.17,0-.28-.03-.28-.13,0-.13.13-.17.38-.17.43,0,.92.02,1.35.02.43.02.82.03,1.05.03.63,0,4.01,0,4.4-.02.32-.02.52-.02.68-.07.1-.03.18-.1.27-.1.07,0,.12.07.12.15,0,.12-.08.32-.13.75-.02.17-.05,1.15-.08,1.35-.02.13-.05.23-.17.23s-.15-.08-.17-.27c0-.13,0-.4-.1-.63-.12-.23-.46-.48-1.1-.5l-2.56-.05c-.1,0-.15.05-.15.23v4.17c0,.1.01.15.12.15l2.13-.02c.28,0,.51,0,.75-.02.32-.02.55-.08.72-.3.08-.1.12-.17.22-.17.07,0,.1.05.1.15s-.08.52-.13,1.03c-.03.33-.07,1.1-.07,1.22,0,.15,0,.32-.17.32-.1,0-.14-.12-.14-.23s-.03-.32-.1-.52c-.08-.23-.33-.53-.85-.6-.42-.05-2.18-.05-2.46-.05-.08,0-.12.03-.12.15v1.35"/>
  <path class="st0" d="M293.58,180.39c.04,1.54.29,2.05.69,2.19.34.12.71.14,1.03.14.22,0,.33.04.33.16,0,.16-.18.2-.45.2-1.28,0-2.07-.06-2.44-.06-.18,0-1.1.06-2.13.06-.26,0-.43-.02-.43-.2,0-.12.12-.16.32-.16.26,0,.61-.02.89-.1.51-.16.59-.73.61-2.44l.18-11.66c0-.39.06-.67.26-.67.22,0,.39.26.73.61.24.26,3.23,3.47,6.11,6.32,1.34,1.34,4,4.18,4.33,4.49h.1l-.2-8.84c-.02-1.2-.2-1.58-.67-1.77-.29-.12-.77-.12-1.04-.12-.24,0-.31-.06-.31-.18,0-.16.21-.18.51-.18,1.02,0,1.97.06,2.38.06.22,0,.96-.06,1.93-.06.26,0,.45.02.45.18,0,.12-.12.18-.36.18-.2,0-.36,0-.59.06-.55.16-.71.57-.73,1.67l-.22,12.43c0,.43-.08.61-.26.61-.22,0-.45-.22-.67-.43-1.24-1.18-3.76-3.76-5.81-5.79-2.15-2.13-4.33-4.59-4.69-4.96h-.06l.22,8.27"/>
  <path class="st0" d="M310.31,178.71c-.08,0-.12.03-.15.13l-.9,2.38c-.17.42-.25.82-.25,1.02,0,.3.15.52.67.52h.25c.2,0,.25.03.25.13,0,.13-.1.17-.28.17-.53,0-1.25-.05-1.77-.05-.18,0-1.1.05-1.97.05-.22,0-.32-.03-.32-.17,0-.1.07-.13.2-.13.15,0,.38-.02.52-.03.77-.1,1.08-.67,1.42-1.5l4.18-10.46c.2-.48.3-.67.47-.67.15,0,.25.15.42.53.4.92,3.07,7.71,4.13,10.25.63,1.5,1.12,1.73,1.47,1.82.25.05.5.07.7.07.13,0,.22.02.22.13,0,.13-.15.17-.77.17s-1.82,0-3.15-.03c-.3-.02-.5-.02-.5-.13,0-.1.07-.13.23-.15.12-.03.23-.18.15-.38l-1.33-3.53c-.03-.08-.08-.12-.17-.12h-3.72M313.71,177.88c.08,0,.1-.05.08-.1l-1.5-4.11c-.01-.07-.03-.15-.08-.15s-.08.08-.1.15l-1.53,4.1c-.02.07,0,.12.07.12h3.07Z"/>
  <path class="st0" d="M322.03,171.4l-2.48.07c-.97.03-1.37.12-1.62.48-.17.25-.25.45-.28.58-.03.13-.08.2-.18.2-.12,0-.15-.08-.15-.27,0-.27.32-1.78.35-1.92.05-.22.1-.32.2-.32.13,0,.3.17.72.2.48.05,1.12.08,1.67.08h6.6c.53,0,.9-.05,1.15-.08.25-.05.38-.08.45-.08.11,0,.13.1.13.35,0,.35-.05,1.5-.05,1.93-.02.17-.05.27-.15.27-.13,0-.17-.08-.18-.33l-.02-.18c-.03-.43-.48-.9-1.97-.93l-2.1-.05v6.83c0,1.53,0,2.85.08,3.57.05.47.15.83.65.9.23.03.6.07.85.07.18,0,.27.05.27.13,0,.12-.13.17-.32.17-1.1,0-2.15-.05-2.61-.05-.38,0-1.43.05-2.1.05-.22,0-.33-.05-.33-.17,0-.08.07-.13.27-.13.25,0,.45-.03.6-.07.33-.07.43-.43.48-.92.08-.7.08-2.02.08-3.55v-6.83"/>
  <path class="st0" d="M330.84,175.3c0-2.53,0-3-.03-3.53-.03-.57-.17-.83-.72-.95-.13-.03-.42-.05-.65-.05-.18,0-.28-.03-.28-.15s.12-.15.37-.15c.88,0,1.93.05,2.43.05.4,0,1.45-.05,2.05-.05.25,0,.37.03.37.15s-.1.15-.27.15c-.18,0-.28.02-.48.05-.45.08-.58.37-.62.95-.03.53-.03,1-.03,3.53v2.33c0,2.42.48,3.43,1.3,4.1.75.62,1.52.68,2.08.68.73,0,1.63-.23,2.3-.9.92-.92.97-2.42.97-4.13v-2.08c0-2.53,0-3-.03-3.53-.03-.57-.17-.83-.72-.95-.13-.03-.42-.05-.6-.05s-.28-.03-.28-.15.12-.15.35-.15c.85,0,1.9.05,1.92.05.2,0,1.25-.05,1.9-.05.23,0,.35.03.35.15s-.1.15-.3.15c-.18,0-.28.02-.48.05-.45.08-.58.37-.62.95-.03.53-.03,1-.03,3.53v1.78c0,1.85-.18,3.82-1.58,5.01-1.18,1.02-2.38,1.2-3.47,1.2-.88,0-2.48-.05-3.7-1.15-.85-.77-1.48-2-1.48-4.42v-2.43"/>
  <path class="st0" d="M344.92,175.3c0-2.53,0-3-.03-3.53-.03-.57-.17-.83-.72-.95-.13-.03-.42-.05-.65-.05-.18,0-.28-.03-.28-.15s.12-.15.37-.15c.88,0,1.93.05,2.28.05.57,0,1.83-.05,2.35-.05,1.05,0,2.17.1,3.06.72.47.32,1.13,1.17,1.13,2.28,0,1.23-.52,2.37-2.2,3.73,1.48,1.87,2.63,3.35,3.62,4.38.93.97,1.61,1.08,1.86,1.13.18.03.33.05.47.05s.2.05.2.13c0,.13-.11.17-.32.17h-1.58c-.93,0-1.35-.08-1.78-.32-.72-.38-1.35-1.17-2.28-2.45-.67-.92-1.43-2.05-1.65-2.3-.08-.1-.18-.12-.3-.12l-1.45-.03c-.08,0-.13.03-.13.13v.23c0,1.55,0,2.87.08,3.57.05.48.15.85.65.92.25.03.62.07.82.07.13,0,.2.05.2.13,0,.12-.11.17-.33.17-.97,0-2.2-.05-2.45-.05-.32,0-1.37.05-2.03.05-.22,0-.33-.05-.33-.17,0-.08.07-.13.27-.13.25,0,.45-.03.6-.07.33-.07.42-.43.48-.92.08-.7.08-2.02.08-3.55v-2.93M346.89,176.61c0,.18.03.25.15.3.35.12.85.17,1.27.17.67,0,.88-.07,1.18-.28.5-.37.98-1.13.98-2.5,0-2.37-1.57-3.05-2.55-3.05-.42,0-.71.02-.88.07-.12.03-.15.1-.15.23v5.07Z"/>
  <path class="st0" d="M359.01,178.71c-.08,0-.12.03-.15.13l-.9,2.38c-.17.42-.25.82-.25,1.02,0,.3.15.52.67.52h.25c.2,0,.25.03.25.13,0,.13-.1.17-.28.17-.53,0-1.25-.05-1.76-.05-.18,0-1.1.05-1.97.05-.22,0-.32-.03-.32-.17,0-.1.07-.13.2-.13.15,0,.38-.02.51-.03.77-.1,1.08-.67,1.42-1.5l4.18-10.46c.2-.48.3-.67.46-.67.15,0,.25.15.42.53.4.92,3.06,7.71,4.13,10.25.63,1.5,1.12,1.73,1.47,1.82.25.05.5.07.7.07.13,0,.21.02.21.13,0,.13-.15.17-.77.17s-1.82,0-3.15-.03c-.3-.02-.5-.02-.5-.13,0-.1.07-.13.23-.15.12-.03.23-.18.15-.38l-1.33-3.53c-.03-.08-.08-.12-.17-.12h-3.71M362.41,177.88c.08,0,.1-.05.08-.1l-1.5-4.11c-.02-.07-.03-.15-.08-.15s-.08.08-.1.15l-1.53,4.1c-.02.07,0,.12.07.12h3.07Z"/>
  <path class="st0" d="M372.09,178.23c0,2.13,0,3.28.35,3.58.28.25.72.37,2.02.37.88,0,1.53-.02,1.95-.47.2-.22.4-.68.43-1,.02-.15.05-.25.18-.25.11,0,.13.08.13.28,0,.18-.12,1.43-.25,1.92-.1.37-.18.45-1.05.45-1.2,0-2.07-.03-2.81-.05-.75-.03-1.35-.05-2.03-.05-.18,0-.55,0-.95.02-.38,0-.82.03-1.15.03-.22,0-.33-.05-.33-.17,0-.08.07-.13.27-.13.25,0,.45-.03.6-.07.33-.07.42-.43.48-.92.08-.7.08-2.02.08-3.55v-2.93c0-2.53,0-3-.03-3.53-.03-.57-.17-.83-.72-.95-.13-.03-.33-.05-.55-.05-.18,0-.28-.03-.28-.15s.12-.15.37-.15c.78,0,1.83.05,2.28.05.4,0,1.61-.05,2.26-.05.23,0,.35.03.35.15s-.1.15-.3.15c-.18,0-.45.02-.65.05-.45.08-.58.37-.62.95-.03.53-.03,1-.03,3.53v2.93"/>
  <path class="st0" d="M384.33,173.89c0-2.99,0-3.55-.04-4.18-.04-.67-.2-.98-.85-1.12-.16-.04-.49-.06-.77-.06-.22,0-.33-.04-.33-.18s.14-.18.43-.18c1.04,0,2.28.06,2.7.06.67,0,2.17-.06,2.78-.06,1.24,0,2.56.12,3.62.85.55.37,1.34,1.38,1.34,2.7,0,1.46-.61,2.8-2.6,4.41,1.75,2.21,3.11,3.96,4.27,5.18,1.1,1.14,1.91,1.28,2.21,1.34.22.04.4.06.55.06s.24.06.24.16c0,.16-.14.2-.37.2h-1.87c-1.1,0-1.6-.1-2.11-.38-.85-.45-1.59-1.38-2.7-2.9-.79-1.08-1.7-2.42-1.95-2.72-.1-.12-.22-.14-.35-.14l-1.72-.04c-.1,0-.16.04-.16.16v.28c0,1.83,0,3.39.1,4.21.06.57.18,1.01.77,1.08.3.04.73.08.97.08.16,0,.24.06.24.16,0,.14-.14.2-.39.2-1.14,0-2.6-.06-2.9-.06-.37,0-1.62.06-2.4.06-.26,0-.39-.06-.39-.2,0-.1.08-.16.32-.16.3,0,.53-.04.71-.08.39-.08.49-.51.57-1.08.1-.83.1-2.38.1-4.2v-3.47M386.66,175.45c0,.22.04.3.18.35.41.14,1.01.2,1.5.2.79,0,1.04-.08,1.4-.33.59-.43,1.16-1.34,1.16-2.95,0-2.8-1.85-3.61-3.01-3.61-.49,0-.85.02-1.04.08-.14.04-.18.12-.18.28v5.99Z"/>
  <path class="st0" d="M397.72,175.3c0-2.53,0-3-.03-3.53-.03-.57-.17-.83-.72-.95-.13-.03-.42-.05-.65-.05-.18,0-.28-.03-.28-.15s.12-.15.37-.15c.45,0,.93.02,1.35.02.43.02.82.03,1.05.03.53,0,3.85,0,4.17-.02.32-.03.58-.07.72-.1.08-.02.18-.07.27-.07s.1.07.1.15c0,.12-.08.32-.14,1.08-.02.17-.05.9-.08,1.1-.02.08-.05.18-.17.18s-.15-.08-.15-.23c0-.12-.02-.4-.1-.6-.12-.3-.28-.5-1.12-.6-.28-.03-2.03-.07-2.36-.07-.08,0-.12.05-.12.17v4.22c0,.12.02.18.12.18.36,0,2.28,0,2.67-.03.4-.03.65-.08.8-.25.12-.13.18-.22.27-.22.07,0,.12.03.12.13s-.07.37-.13,1.22c-.02.33-.07,1-.07,1.12,0,.13,0,.32-.15.32-.12,0-.15-.07-.15-.15-.02-.17-.02-.38-.07-.6-.08-.33-.32-.58-.93-.65-.32-.03-1.96-.05-2.37-.05-.08,0-.1.07-.1.17v1.32c0,.57-.02,2.1,0,2.58.03,1.15.3,1.4,2,1.4.43,0,1.13,0,1.56-.2.43-.2.64-.55.75-1.23.03-.18.07-.25.18-.25.13,0,.13.13.13.3,0,.38-.13,1.52-.21,1.85-.12.43-.27.43-.9.43-1.25,0-2.17-.03-2.88-.05-.72-.03-1.23-.05-1.73-.05-.18,0-.55,0-.95.02-.38,0-.82.03-1.15.03-.22,0-.33-.05-.33-.17,0-.08.07-.13.27-.13.25,0,.45-.03.6-.07.33-.07.42-.43.48-.92.08-.7.08-2.02.08-3.55v-2.93"/>
  <path class="st0" d="M406.09,182.86c-.27-.12-.32-.2-.32-.57,0-.92.07-1.92.08-2.18.02-.25.07-.43.2-.43.15,0,.17.15.17.29,0,.21.07.57.15.85.37,1.23,1.35,1.68,2.38,1.68,1.5,0,2.23-1.02,2.23-1.9,0-.82-.25-1.58-1.63-2.67l-.77-.6c-1.83-1.43-2.47-2.6-2.47-3.95,0-1.83,1.53-3.15,3.85-3.15,1.08,0,1.78.17,2.22.28.15.03.23.08.23.2,0,.22-.07.7-.07,2,0,.37-.05.5-.18.5-.12,0-.17-.1-.17-.3,0-.15-.08-.67-.43-1.1-.25-.32-.73-.82-1.82-.82-1.23,0-1.98.72-1.98,1.72,0,.77.38,1.35,1.77,2.4l.47.35c2.02,1.51,2.73,2.67,2.73,4.25,0,.96-.37,2.12-1.57,2.9-.83.53-1.77.68-2.65.68-.97,0-1.72-.12-2.43-.43"/>
  <path class="st0" d="M413.64,176.76c0-2.85,1.88-6.53,6.88-6.53,4.15,0,6.73,2.42,6.73,6.23s-2.67,6.83-6.9,6.83c-4.78,0-6.71-3.58-6.71-6.53M424.92,177.08c0-3.73-2.15-6.05-4.88-6.05-1.92,0-4.1,1.07-4.1,5.22,0,3.47,1.92,6.21,5.12,6.21,1.17,0,3.87-.57,3.87-5.38Z"/>
  <path class="st0" d="M429.35,175.3c0-2.53,0-3-.03-3.53-.03-.57-.17-.83-.72-.95-.13-.03-.42-.05-.65-.05-.18,0-.28-.03-.28-.15s.12-.15.37-.15c.88,0,1.93.05,2.43.05.4,0,1.45-.05,2.05-.05.25,0,.37.03.37.15s-.1.15-.27.15c-.18,0-.28.02-.48.05-.45.08-.58.37-.62.95-.03.53-.03,1-.03,3.53v2.33c0,2.42.48,3.43,1.3,4.1.75.62,1.52.68,2.08.68.73,0,1.63-.23,2.3-.9.92-.92.97-2.42.97-4.13v-2.08c0-2.53,0-3-.03-3.53-.03-.57-.17-.83-.72-.95-.13-.03-.42-.05-.6-.05s-.28-.03-.28-.15.12-.15.35-.15c.85,0,1.9.05,1.92.05.2,0,1.25-.05,1.9-.05.23,0,.35.03.35.15s-.1.15-.3.15c-.18,0-.28.02-.48.05-.45.08-.58.37-.62.95-.03.53-.03,1-.03,3.53v1.78c0,1.85-.18,3.82-1.58,5.01-1.18,1.02-2.38,1.2-3.47,1.2-.88,0-2.48-.05-3.7-1.15-.85-.77-1.48-2-1.48-4.42v-2.43"/>
  <path class="st0" d="M443.43,175.3c0-2.53,0-3-.03-3.53-.03-.57-.17-.83-.72-.95-.13-.03-.42-.05-.65-.05-.18,0-.28-.03-.28-.15s.12-.15.37-.15c.88,0,1.93.05,2.28.05.57,0,1.83-.05,2.35-.05,1.05,0,2.17.1,3.06.72.47.32,1.13,1.17,1.13,2.28,0,1.23-.52,2.37-2.2,3.73,1.48,1.87,2.63,3.35,3.62,4.38.93.97,1.61,1.08,1.86,1.13.18.03.33.05.47.05s.2.05.2.13c0,.13-.11.17-.32.17h-1.58c-.93,0-1.35-.08-1.78-.32-.72-.38-1.35-1.17-2.28-2.45-.67-.92-1.43-2.05-1.65-2.3-.08-.1-.18-.12-.3-.12l-1.45-.03c-.08,0-.13.03-.13.13v.23c0,1.55,0,2.87.08,3.57.05.48.15.85.65.92.25.03.62.07.82.07.13,0,.2.05.2.13,0,.12-.11.17-.33.17-.97,0-2.2-.05-2.45-.05-.32,0-1.37.05-2.03.05-.22,0-.33-.05-.33-.17,0-.08.07-.13.27-.13.25,0,.45-.03.6-.07.33-.07.42-.43.48-.92.08-.7.08-2.02.08-3.55v-2.93M445.4,176.61c0,.18.03.25.15.3.35.12.85.17,1.27.17.67,0,.88-.07,1.18-.28.5-.37.98-1.13.98-2.5,0-2.37-1.57-3.05-2.55-3.05-.42,0-.71.02-.88.07-.11.03-.15.1-.15.23v5.07Z"/>
  <path class="st0" d="M454.93,181.48c-1.63-1.43-2.07-3.3-2.07-4.92,0-1.13.35-3.1,1.95-4.57,1.2-1.1,2.78-1.77,5.26-1.77,1.03,0,1.65.07,2.42.17.63.08,1.17.23,1.67.28.18.02.25.1.25.2,0,.13-.05.33-.08.92-.03.55-.02,1.46-.05,1.8-.02.25-.05.38-.2.38-.13,0-.17-.13-.17-.37-.02-.52-.23-1.1-.65-1.53-.55-.58-1.85-1.03-3.38-1.03-1.45,0-2.4.37-3.13,1.03-1.22,1.12-1.53,2.7-1.53,4.32,0,3.97,3.02,5.93,5.25,5.93,1.48,0,2.38-.17,3.05-.93.28-.32.5-.8.57-1.1.05-.27.08-.33.22-.33.12,0,.15.12.15.25,0,.2-.2,1.65-.37,2.22-.08.28-.15.37-.43.48-.67.27-1.93.38-3,.38-2.28,0-4.2-.5-5.72-1.82"/>
  <path class="st0" d="M467.18,175.3c0-2.53,0-3-.03-3.53-.03-.57-.17-.83-.72-.95-.13-.03-.42-.05-.65-.05-.18,0-.28-.03-.28-.15s.12-.15.37-.15c.45,0,.93.02,1.35.02.43.02.82.03,1.05.03.53,0,3.85,0,4.17-.02.32-.03.58-.07.72-.1.08-.02.18-.07.27-.07s.1.07.1.15c0,.12-.08.32-.14,1.08-.02.17-.05.9-.08,1.1-.02.08-.05.18-.17.18s-.15-.08-.15-.23c0-.12-.02-.4-.1-.6-.12-.3-.28-.5-1.12-.6-.28-.03-2.03-.07-2.36-.07-.08,0-.12.05-.12.17v4.22c0,.12.02.18.12.18.36,0,2.28,0,2.67-.03.4-.03.65-.08.8-.25.12-.13.18-.22.27-.22.07,0,.12.03.12.13s-.07.37-.13,1.22c-.02.33-.07,1-.07,1.12,0,.13,0,.32-.15.32-.12,0-.15-.07-.15-.15-.02-.17-.02-.38-.07-.6-.08-.33-.32-.58-.93-.65-.32-.03-1.96-.05-2.37-.05-.08,0-.1.07-.1.17v1.32c0,.57-.02,2.1,0,2.58.03,1.15.3,1.4,2,1.4.43,0,1.13,0,1.56-.2.43-.2.64-.55.75-1.23.03-.18.07-.25.18-.25.13,0,.13.13.13.3,0,.38-.13,1.52-.21,1.85-.12.43-.27.43-.9.43-1.25,0-2.17-.03-2.88-.05-.72-.03-1.23-.05-1.73-.05-.18,0-.55,0-.95.02-.38,0-.82.03-1.15.03-.22,0-.33-.05-.33-.17,0-.08.07-.13.27-.13.25,0,.45-.03.6-.07.33-.07.42-.43.48-.92.08-.7.08-2.02.08-3.55v-2.93"/>
  <path class="st0" d="M475.97,182.86c-.27-.12-.32-.2-.32-.57,0-.92.07-1.92.08-2.18.02-.25.07-.43.2-.43.15,0,.17.15.17.29,0,.21.07.57.15.85.36,1.23,1.35,1.68,2.38,1.68,1.5,0,2.23-1.02,2.23-1.9,0-.82-.25-1.58-1.63-2.67l-.77-.6c-1.83-1.43-2.46-2.6-2.46-3.95,0-1.83,1.53-3.15,3.85-3.15,1.08,0,1.78.17,2.22.28.15.03.23.08.23.2,0,.22-.07.7-.07,2,0,.37-.05.5-.18.5-.12,0-.17-.1-.17-.3,0-.15-.08-.67-.43-1.1-.25-.32-.73-.82-1.82-.82-1.23,0-1.98.72-1.98,1.72,0,.77.39,1.35,1.77,2.4l.46.35c2.02,1.51,2.74,2.67,2.74,4.25,0,.96-.37,2.12-1.57,2.9-.83.53-1.77.68-2.65.68-.97,0-1.72-.12-2.43-.43"/>
  <path class="st0" d="M187.89,154.03c0,2-.07,2.15-.97,2.67-4.83,2.52-12.1,3.34-17.89,3.34-18.19,0-34.3-8.61-34.3-29.11,0-11.88,6.16-20.19,12.92-24.28,7.13-4.31,13.74-4.83,19.97-4.83,5.12,0,11.66.89,13.14,1.19,1.56.3,4.16.74,5.87.82.89.07,1.04.37,1.04.89,0,.82-.52,2.9-.52,12.18,0,1.19-.22,1.56-.82,1.56-.52,0-.67-.37-.74-.96-.22-1.71-.59-4.08-2.52-6.16-2.23-2.38-8.17-5.79-16.56-5.79-4.08,0-9.5.3-14.7,4.6-4.16,3.49-6.83,9.06-6.83,18.19,0,15.96,10.17,27.92,25.84,27.92,1.93,0,4.53,0,6.31-.82,1.11-.52,1.41-1.48,1.41-2.75v-6.98c0-3.71,0-6.53-.08-8.76-.07-2.52-.74-3.71-3.19-4.23-.59-.15-1.86-.22-2.9-.22-.67,0-1.11-.15-1.11-.59,0-.6.52-.74,1.56-.74,3.86,0,8.54.22,10.77.22s6.24-.22,8.69-.22c.96,0,1.49.15,1.49.74,0,.45-.45.59-.97.59-.59,0-1.11.07-2,.22-2.01.37-2.75,1.63-2.82,4.23-.07,2.23-.07,5.2-.07,8.91v8.17"/>
  <path class="st0" d="M201.18,124.41c0-11.29,0-13.37-.15-15.74-.15-2.52-.74-3.71-3.19-4.23-.59-.15-1.86-.22-2.9-.22-.82,0-1.26-.15-1.26-.67s.52-.67,1.63-.67c2.01,0,4.16.07,6.01.07,1.93.07,3.64.15,4.68.15,2.38,0,17.15,0,18.56-.07,1.41-.15,2.6-.3,3.19-.45.37-.07.82-.3,1.19-.3s.45.3.45.67c0,.52-.37,1.41-.6,4.83-.07.74-.22,4.01-.37,4.9-.07.37-.22.82-.74.82s-.67-.37-.67-1.04c0-.52-.08-1.78-.45-2.67-.52-1.34-1.26-2.23-4.97-2.67-1.26-.15-9.06-.3-10.54-.3-.37,0-.52.22-.52.74v18.79c0,.52.07.82.52.82,1.63,0,10.17,0,11.88-.15,1.78-.15,2.9-.37,3.56-1.12.52-.59.82-.96,1.19-.96.3,0,.52.15.52.59s-.3,1.63-.59,5.42c-.08,1.49-.3,4.45-.3,4.98,0,.59,0,1.41-.67,1.41-.52,0-.67-.3-.67-.67-.07-.74-.07-1.71-.3-2.67-.37-1.48-1.41-2.6-4.16-2.9-1.41-.15-8.76-.22-10.54-.22-.37,0-.45.3-.45.74v5.86c0,2.52-.07,9.36,0,11.51.15,5.12,1.34,6.24,8.91,6.24,1.93,0,5.05,0,6.98-.89,1.93-.89,2.82-2.45,3.34-5.49.15-.82.3-1.11.82-1.11.59,0,.59.6.59,1.34,0,1.71-.59,6.76-.96,8.24-.52,1.93-1.19,1.93-4.01,1.93-5.57,0-9.65-.15-12.85-.22-3.19-.15-5.49-.22-7.72-.22-.82,0-2.45,0-4.23.07-1.71,0-3.64.15-5.12.15-.97,0-1.49-.22-1.49-.74,0-.37.3-.59,1.19-.59,1.11,0,2.01-.15,2.67-.3,1.49-.3,1.86-1.93,2.15-4.08.37-3.12.37-8.99.37-15.82v-13.07"/>
  <path class="st0" d="M233.7,130.94c0-12.7,8.39-29.1,30.67-29.1,18.49,0,30,10.77,30,27.77s-11.88,30.44-30.74,30.44c-21.31,0-29.92-15.96-29.92-29.11M283.97,132.35c0-16.63-9.58-26.95-21.76-26.95-8.54,0-18.27,4.75-18.27,23.24,0,15.45,8.54,27.7,22.8,27.7,5.2,0,17.23-2.52,17.23-23.98Z"/>
  <path class="st0" d="M300.97,124.41c0-11.29,0-13.36-.15-15.74-.15-2.53-.74-3.71-3.19-4.23-.59-.15-1.86-.22-2.9-.22-.82,0-1.26-.15-1.26-.67s.52-.67,1.63-.67c3.93,0,8.61.22,10.17.22,2.52,0,8.17-.22,10.47-.22,4.68,0,9.65.45,13.66,3.19,2.08,1.41,5.05,5.2,5.05,10.17,0,5.49-2.3,10.54-9.8,16.63,6.61,8.32,11.73,14.92,16.11,19.53,4.16,4.31,7.2,4.83,8.32,5.05.82.15,1.49.22,2.08.22s.89.22.89.59c0,.59-.52.74-1.41.74h-7.05c-4.16,0-6.01-.37-7.94-1.41-3.19-1.71-6.02-5.2-10.17-10.91-2.97-4.08-6.39-9.13-7.35-10.25-.37-.45-.82-.52-1.34-.52l-6.46-.15c-.37,0-.59.15-.59.6v1.04c0,6.9,0,12.77.37,15.89.22,2.15.67,3.79,2.9,4.08,1.11.15,2.75.3,3.64.3.59,0,.89.22.89.59,0,.52-.52.74-1.49.74-4.31,0-9.8-.22-10.91-.22-1.41,0-6.09.22-9.06.22-.96,0-1.49-.22-1.49-.74,0-.37.3-.59,1.19-.59,1.11,0,2.01-.15,2.67-.3,1.48-.3,1.86-1.93,2.15-4.08.37-3.12.37-8.98.37-15.82v-13.07M309.73,130.27c0,.82.15,1.11.67,1.34,1.56.52,3.79.74,5.64.74,2.97,0,3.94-.3,5.27-1.26,2.23-1.63,4.38-5.05,4.38-11.14,0-10.54-6.98-13.59-11.36-13.59-1.86,0-3.19.07-3.93.3-.52.15-.67.45-.67,1.04v22.57Z"/>
  <path class="st0" d="M395.12,154.03c0,2-.08,2.15-.97,2.67-4.83,2.52-12.1,3.34-17.9,3.34-18.19,0-34.3-8.61-34.3-29.11,0-11.88,6.16-20.19,12.92-24.28,7.13-4.31,13.74-4.83,19.97-4.83,5.12,0,11.66.89,13.14,1.19,1.56.3,4.16.74,5.87.82.89.07,1.04.37,1.04.89,0,.82-.52,2.9-.52,12.18,0,1.19-.22,1.56-.82,1.56-.52,0-.67-.37-.74-.96-.22-1.71-.59-4.08-2.53-6.16-2.23-2.38-8.17-5.79-16.56-5.79-4.08,0-9.5.3-14.7,4.6-4.16,3.49-6.83,9.06-6.83,18.19,0,15.96,10.17,27.92,25.84,27.92,1.93,0,4.53,0,6.31-.82,1.11-.52,1.41-1.48,1.41-2.75v-6.98c0-3.71,0-6.53-.07-8.76-.07-2.52-.74-3.71-3.19-4.23-.59-.15-1.86-.22-2.9-.22-.67,0-1.11-.15-1.11-.59,0-.6.52-.74,1.56-.74,3.86,0,8.54.22,10.77.22s6.24-.22,8.69-.22c.97,0,1.49.15,1.49.74,0,.45-.45.59-.97.59-.59,0-1.11.07-2.01.22-2.01.37-2.75,1.63-2.82,4.23-.07,2.23-.07,5.2-.07,8.91v8.17"/>
  <path class="st0" d="M408.71,124.41c0-11.29,0-13.37-.15-15.74-.15-2.52-.89-3.79-2.52-4.16-.82-.22-1.78-.3-2.67-.3-.74,0-1.19-.15-1.19-.74,0-.44.6-.59,1.78-.59,2.82,0,7.5.22,9.65.22,1.86,0,6.24-.22,9.06-.22.96,0,1.56.15,1.56.59,0,.59-.45.74-1.19.74s-1.34.07-2.23.22c-2.01.37-2.6,1.63-2.75,4.23-.15,2.38-.15,4.46-.15,15.74v13.07c0,7.2,0,13.07.3,16.26.22,2.01.74,3.34,2.97,3.64,1.04.15,2.67.3,3.79.3.82,0,1.19.22,1.19.59,0,.52-.59.74-1.41.74-4.9,0-9.58-.22-11.58-.22-1.71,0-6.39.22-9.36.22-.97,0-1.49-.22-1.49-.74,0-.37.3-.59,1.19-.59,1.11,0,2.01-.15,2.67-.3,1.48-.3,1.93-1.56,2.15-3.71.37-3.12.37-8.99.37-16.19v-13.07"/>
  <path class="st0" d="M441.53,139.63c-.37,0-.52.15-.67.59l-4.01,10.62c-.74,1.86-1.11,3.64-1.11,4.53,0,1.34.67,2.3,2.97,2.3h1.11c.89,0,1.11.15,1.11.59,0,.59-.45.74-1.26.74-2.38,0-5.57-.22-7.87-.22-.82,0-4.9.22-8.76.22-.97,0-1.41-.15-1.41-.74,0-.45.3-.59.89-.59.67,0,1.71-.07,2.3-.15,3.42-.45,4.83-2.97,6.31-6.68l18.64-46.63c.89-2.15,1.34-2.97,2.08-2.97.67,0,1.11.67,1.86,2.38,1.78,4.08,13.66,34.38,18.41,45.66,2.82,6.68,4.97,7.72,6.53,8.09,1.11.22,2.23.3,3.12.3.6,0,.97.07.97.59,0,.59-.67.74-3.42.74s-8.09,0-14.03-.15c-1.34-.07-2.23-.07-2.23-.59,0-.45.3-.59,1.04-.67.52-.15,1.04-.82.67-1.71l-5.94-15.74c-.15-.37-.37-.52-.74-.52h-16.56M456.67,135.92c.37,0,.45-.22.37-.45l-6.68-18.34c-.07-.3-.15-.67-.37-.67s-.37.37-.45.67l-6.83,18.26c-.07.3,0,.52.3.52h13.66Z"/>
  <path class="st1" d="M97.15,161.99s6.62-.5,9.75-2c0,0-2.88,2.38-6.38,3.38"/>
</svg>