<?xml version="1.0" encoding="UTF-8"?>
<svg id="Layer_1" xmlns="http://www.w3.org/2000/svg" version="1.1" xmlns:xlink="http://www.w3.org/1999/xlink" viewBox="0 0 113 27">
  <!-- Generator: Adobe Illustrator 30.2.1, SVG Export Plug-In . SVG Version: 2.1.1 Build 1)  -->
  <defs>
    <style>
      .st0 {
        fill: #231f20;
      }

      .st1 {
        fill: none;
      }

      .st2 {
        clip-path: url(#clippath-1);
      }

      .st3 {
        fill: #55632c;
      }

      .st4 {
        clip-path: url(#clippath);
      }
    </style>
    <clipPath id="clippath">
      <rect class="st1" y=".753" width="112.337" height="26.247"/>
    </clipPath>
    <clipPath id="clippath-1">
      <rect class="st1" y=".753" width="112.337" height="26.247"/>
    </clipPath>
  </defs>
  <g class="st4">
    <path class="st3" d="M16.308,15.411c-.032-.554-.115-.649-.189-1.214-.021-.199-.069-.32-.1-.562.005-.023-.016-.058-.019-.081-.005-.04-.017-.044-.031-.078-.036-.09-.034-.197-.036-.243-.007-.103.002-.205.013-.308.017-.166.049-.331.058-.497.008-.161-.028-.32-.031-.481-.003-.123.032-.243.018-.366v-.09c0-.017-.011-.03-.028-.038.01-.029.02-.056.031-.086,0,.001.002.001.005.001.091.009.18.01.27.006-.004.004-.007.007-.01.011-.054.074.006.198.164.185.009,0,.018,0,.027-.002.023.045.084.085.154.101.012.003.025.006.038.008-.051.046-.09.095-.114.144-.043.097.026.193.144.247-.016.055-.005.104.028.146.003.092.009.184.025.275-.055.055-.11.109-.143.166-.047.08-.065.163-.05.248.008.04.061.222.124.182-.118.077.043.222.183.153.012-.006.022-.012.032-.017.01.001.02.002.029.003-.034.167-.069.336-.106.503-.111.519-.147.892-.34,1.402-.078.209-.041.079-.146.282M15.837,10.433c.003-.042.002-.082-.004-.123v-.003c.014-.33-.026-.662-.046-.99.235-.144.379-.321.483-.513.058-.035.114-.073.171-.111-.025.061-.047.123-.066.188-.005.018.01.03.03.035-.167.357-.312.716-.433,1.083-.046.144-.093.288-.135.434M15.776,7.166c.11-.045.171.085.234.09-.097-.008-.132.041-.152.093-.072-.015-.161-.152-.082-.183M15.532,4.324c-.189-.162-.211-.347.173-.219.1.033.413.173.442.213.052.067.03.219.067.29.035.068.286.23.069.302-.035.013-.343-.083-.374-.112-.109-.095.021-.16-.043-.256-.065-.101-.237-.135-.334-.218M15.395,10.515c-.01.18-.018.359-.009.539-.043-.176-.088-.352-.137-.528.064-.092.104-.191.112-.282.007-.071-.036-.12-.103-.15.047-.077.086-.154.117-.233.019.218.033.436.02.654M14.99,3.891c-.019-.051.072-.104.05-.169-.021-.063-.116-.076-.079-.153.137.016.211.134.251.213.01.021-.031.044-.011.072.016.02.074.031.087.051.033.05.1.059-.008.085-.085.02-.271-.043-.29-.099M16.471,10.024c.039-.098.081-.192.123-.288.022-.007.042-.018.06-.033.096-.085.193-.167.282-.255.047-.045.089-.09.13-.138.023-.025.037-.075.087-.086-.03.053.066.062.103.094.052.048-.069.084-.043.126.005.01.044.025.054.034.017.016.018.019.019.037.002.04-.042.062-.058.097-.028.059.094.063.109.11.012.041-.062.065-.108.08-.033.012-.155.042-.147.073-.022,0-.042.008-.062.01-.028.003-.057.002-.087.002-.02,0-.064-.002-.077.012-.016.019.019.034.036.045-.015.006-.034.011-.052.015-.003.019.026.033.035.05-.054.02-.094.035-.039.073.035.026.034.018,0,.037-.016.01-.03.019-.026.035.002.014.027.025.027.042,0,.018-.03.03-.028.046.003.026.07.055.089.078.002-.003.009-.006.011-.01.004.018.033.048.024.064-.002.004-.007.008-.013.01-.013.006-.027.01-.036.014-.053.027.02.051.061.068.019.008.056.013.056.029,0,.008-.034.029-.043.035-.025.017-.052.028-.083.038-.015.005-.039.018-.054.02-.023.004-.016.002-.039-.006-.048-.016-.095-.008-.115.028-.02.034,0,.063-.076.056-.043-.006-.114-.009-.142.02-.036.035-.06.053-.113.076-.058.026-.113.055-.166.085.093-.276.188-.551.301-.823M17.295,8.996c.017-.024.025-.041.043-.053.014-.009.033-.016.067-.021.034-.006.047-.011.063-.028.009-.009.008-.014.02-.024.01-.008.023-.019.036-.025.039-.015.052-.003.086.011.016.007.039.023.06.026.029.004.021-.002.045-.006.028-.004.058,0,.085-.007.07-.014.132-.036.208-.041.032,0,.074.007.102.001.034-.008.019-.012.03-.027.01-.015.003-.017.027-.027.025-.012.063-.019.092-.025.055-.012.059-.021.09-.044.026-.02.08-.032.118-.033.03,0,.029,0,.055.009.013.005.059.03.071.029.036-.001.01-.018.023-.03.009-.007.039-.011.051-.014.049-.011.073-.009.108.018.027.021.05.055.102.047-.002-.028.069-.029.097-.03.015,0,.149-.002.152-.007-.067.133-.134.267-.207.398-.09.034-.174.076-.251.124-.041.028.023.069.065.043.041-.026.085-.048.132-.069-.034.058-.07.115-.106.173-.017.028-.06.129-.125.068-.017-.015-.006-.034-.014-.051-.012-.027-.042-.037-.08-.05-.014-.004-.051-.01-.061-.016-.013-.008,0-.013-.008-.021-.018-.026-.038-.071-.072-.089-.028-.014-.024-.002-.047.003-.051.008-.079.003-.119-.021-.018-.01-.033-.025-.05-.035-.02-.014-.064-.022-.081-.036-.044-.038.079-.055.014-.08-.024-.01-.066,0-.091-.008-.039-.013-.053-.043-.106-.044-.055,0-.077.04-.132.035-.044-.003-.065-.023-.11-.006-.043.016-.06.044-.111.052-.059.008-.129.003-.191.008-.067.003-.134.029-.178.065.033-.048.066-.095.098-.142M19.603,10.071c-.102.073-.208.153-.25.239-.263.096-.51.209-.749.329.017-.013.034-.027.05-.042.041-.039.013-.103-.052-.125-.01-.003-.019-.006-.028-.008.188-.104.297-.287.307-.452.023-.034.046-.067.07-.1.018.003.036.005.056.005.041,0,.081,0,.121-.002.156.055.319.101.475.156M19.426,9.434c.01-.009.02-.016.025-.028.011-.022-.021-.02-.024-.036-.007-.033.079-.02.103-.02.039,0,.128-.006.117-.041-.005-.014-.026-.012-.015-.028.005-.007.039-.022.051-.026.031-.013.083-.007.12-.007.018,0,.038.002.053-.004.019-.009.026-.031.045-.042.019-.009.037-.008.051-.023.018-.02-.002-.036.006-.053.008-.018.053-.027.071-.04.015-.013.026-.028.035-.043.009-.016.009-.033.028-.046.023-.016.041-.013.07-.019.062-.015.051-.059.08-.089.014-.014.044-.016.059-.031.013-.012.018-.033.026-.047-.04-.001-.06-.02-.098-.025-.015-.002-.016.001-.032.002-.024,0-.023.002-.049-.006-.065-.02-.147.002-.197.03-.057.035-.147.026-.2.065-.021.014-.037.032-.058.048-.019.013-.04.026-.063.037-.014.007-.046.014-.049.024-.055.009-.02-.018-.012-.031.009-.019.002-.039.008-.057.009-.024.026-.048.039-.071.007-.014.063-.144.075-.144.034,0,.086.009.117-.001.023-.007.033-.03.053-.034.022-.004.042.01.06.014.038.007.044.002.072-.01.057-.023.061-.002.123.008.021.003.048,0,.068,0,.031,0,.026-.003.06.006.056.012.073.008.109-.016.039-.026.047-.007.091.004.041.011.096.011.139.017.023.002.062-.004.081.004.016.008.011.02.023.031.03.026.067.024.111.027.051.004.063.029.109.033.044.004.076,0,.11.018.033.019.054.053.106.048-.061.028-.129.052-.192.079-.139.059-.275.118-.41.181-.028.014-.056.026-.083.039-.068.033-.14.068-.212.106-.17.087-.342.188-.477.301-.058.013-.118.024-.177.034-.006.002-.091-.044-.107-.049-.04-.013-.081-.017-.123-.025.01-.029.056-.043.084-.064M20.042,3.64c.046.085-.064.092.036.181.055.047.233.089.153.145-.107-.06-.248-.003-.366-.039-.533-.166.07-.484.177-.287M20.31,5.887c.179.029.075.112-.044.132-.038.007-.071.007-.097.002-.087-.018-.084-.092.043-.129.028-.008.061-.011.098-.005M21.253,9.054c.095-.056.192-.112.3-.154.123-.048.272-.063.395-.12.045.018.076.046.093.078.006.014.012.03.015.044.003.015-.004.033.005.047.017.024.049.026.032.054-.013.021-.036.048-.014.072.009.01.03.015.041.024.011.011.012.02.023.03.027.026.061.016.102.025.04.008.071.025.069.052-.003.044-.024.032-.08.033-.028,0-.074.016-.089.033.013.01.017.025.005.035-.015.012-.026.008-.05.009-.048.002-.049.013-.082.029-.066-.03-.095.038-.145.025-.041-.01-.04-.064-.088-.041-.025.01-.048.029-.074.041-.013.006-.03.008-.042.017-.009.008-.007.026-.019.033-.008.003-.03,0-.041,0-.023.001-.044.005-.06.016-.036.025.034.044.003.068-.011.008-.041.008-.054.013-.019.006-.034.015-.053.022-.037.012-.07.002-.107-.006-.063-.014-.164.011-.221.031-.102.038-.278.076-.363.129.037-.023.072-.046.109-.069.062-.04.124-.081.188-.121.057-.03.111-.062.157-.097.077-.045.058-.136-.02-.177-.028-.015-.065-.022-.106-.018-.087.006-.171.025-.253.05.158-.048.29-.129.424-.208M22.401,9.714c.034-.008.062.008.095.009.035.001.051-.013.088-.011.036,0,.051,0,.069.016.026.021.035.028.078.037.016.043.122.061.175.046.025-.008.04-.011.065-.017.025-.006.069-.017.089-.028.033-.021.02-.035.008-.056.047-.004.091-.007.139-.009.035-.002.06-.016.095,0,.025.011.031.03.058.04.023.01.056.006.078.015.013.005.017.02.03.027.013.007.026.006.041.01.031.007.076.026.112.016.011-.003.02-.015.028-.019.018-.009.038-.012.055-.023.015-.011.013-.029.033-.036.014-.007.042-.007.058-.011.081-.02.191-.051.219.028.004.011,0,.035.014.041.021.009.079-.013.101-.015.031-.002.1,0,.121.01.011.006.007.013.016.022.015.014.046.022.072.029-.018.013-.05.031-.06.049-.01.021.015.027.044.035-.002,0-.007.003-.01.004.004.009.011.02,0,.027.026.021.053.033.055.057,0,.004-.001.009-.002.014-.005.014-.016.04-.032.051-.01.007-.034.012-.047.018-.073.033-.154.054-.243.056-.051.002-.099.006-.148.009-.025.002-.027-.002-.045-.009-.031-.015-.065-.035-.106-.041-.037-.004-.071.012-.111.008-.029-.003-.108-.038-.135-.012-.017.014.014.035.011.049-.005.017-.063.024-.085.038-.011.008-.014.011-.02.019-.009.012.005.009-.015.017-.029.011-.061-.005-.09-.008-.018,0-.039,0-.054-.004-.007-.014-.042-.045-.061-.052-.028-.01-.066-.013-.097-.006-.038.01-.052.027-.083.042-.04.021-.097.005-.146.016-.034.007-.063.024-.093.027-.053.008-.101-.015-.135-.038-.013-.009-.029-.019-.046-.025-.008-.005-.043-.024-.053-.025-.022-.003-.055.015-.077.02-.051-.052-.122-.061-.215-.048-.03.004-.058.016-.088.02-.04.004-.058-.019-.088-.034-.061-.03-.163-.017-.233,0-.029.008-.059.017-.068.036-.003.007.005.016.001.022-.009.01-.028.01-.04.016-.015.007-.027.018-.04.027-.027.02-.055.04-.089.052-.165.066-.333.112-.484.2-.035-.01-.075-.012-.113-.006,0,0,0,0-.002,0-.003,0-.006.002-.01.002-.006.002-.011.004-.018.006-.085.021-.168.046-.249.074.034-.027.072-.053.108-.077.155-.061.283-.13.414-.207.078-.046.259-.096.296-.16.06-.105-.065-.099.136-.155.177-.051.129-.081.23-.162.054-.044.13-.077.221-.059.028.005.072.014.096.024.034.016.042.052.092.053.024,0,.066-.018.073-.035.007-.019-.028-.034.017-.044M23.236,3.923c.098.014.108.067.035.102.071.064.246.098.174.186-.04.049-.152.058-.244.041-.046-.008-.221-.061-.243-.099-.042-.067.155-.246.278-.23M23.665,3.774c.067-.049.175-.032.251-.066.105-.048.043-.083.096-.128.052-.045.028-.044.123-.053.014,0,.166.026.166.027-.008.063-.044.132-.111.187.164.152-.196.373-.448.273-.101-.04-.171-.174-.077-.24M19.572,11.724c-.115.086-.228.172-.339.259-.049.006-.099.017-.147.031.126-.121.262-.239.373-.365.027.031.065.057.113.075ZM18.678,11.901c-.022.106-.065.213-.103.327-.013.041-.027.083-.038.127-.015.008-.03.015-.044.022-.132.027-.264.053-.398.073-.181.029-.214.171-.103.252.015.012.031.023.046.034-.006.013-.012.025-.017.036-.046.025-.092.05-.146.076-.12.057-.155.147-.092.22-.13.092-.267.183-.393.28.008-.037.016-.073.024-.108.032-.151.062-.301.093-.452.042-.02.075-.049.089-.093.022-.071-.016-.174.011-.247.024,0,.05-.001.076-.006.376-.068.656-.278.781-.51.022-.002.044-.003.067-.005.1-.008.148-.114.027-.126-.013,0-.025-.002-.036-.004.029-.008.06-.015.093-.022.011.005.025.005.039.002.011-.004.021-.007.032-.01.005.043,0,.088-.008.134M14.573,12.913c-.002.048.003.072.004.174-.003.015-.015.051-.018.065-.051-.083-.084-.09-.144-.171-.172-.235-.367-.466-.509-.705-.19-.322-.363-.646-.618-.949-.086-.103-.264-.336-.478-.46.03.005.06.01.091.015.141.044.287.079.437.109.073.021.186.04.245.073.026.015.034.04.06.053.021.011.038.009.052.022.016.014.013.031.016.047.004.015.004.025.022.038.014.009.052.014.055.025.003.011-.064.039-.075.054-.026.037.046.072.069.106.029.04.041.075.105.102.04.017.139.024.177.001.04.023.096.041.119.07.014.02.018.054.021.076.005.03-.013.074.044.087.027.007.028-.005.051-.006.03-.003.039.002.063.008.05.014.064.013.105-.005.022-.01.071-.038.095-.039.076-.007.061.07.051.097-.026.079-.048.164-.051.246-.004.166.003.296.015.462.004.051-.002.122,0,.174-.005.085.001.146-.004.231M13.715,7.96c.041.008.233.176.224.195-.04.093-.045.126-.19.097-.092-.02-.197-.076-.099-.128-.085-.063-.105-.191.065-.164M11.675,4.862c-.14-.023-.45-.093-.197-.214.21-.1.258.101.384.152.104.041.351.025.355.148-.184.031-.371-.058-.542-.086M11.741,5.418c-.209.023-.233-.083-.388-.103-.173-.023-.236.144-.44.116.018-.016.011-.04.047-.062-.059-.016-.187-.081-.17-.133.015-.043.097-.037.127-.069.024-.025.014-.048.03-.071.037-.052.013-.145.159-.129.041.005.249.134.289.153.092.045.208.086.284.127.119.065.074.079.062.171M11.615,10.805c-.054.023-.054.062-.025.087-.467.124-.874.311-1.262.521-.13-.031-.296-.048-.44-.026-.014-.015-.031-.028-.05-.038-.012-.006.057-.051.073-.053.042-.008.089.001.131-.002.007-.017.018-.027.018-.044,0-.022-.012-.025.008-.045.033-.032.109-.04.156-.059.054-.021.115-.013.148-.05.025-.028-.002-.082.048-.09.066-.009.094.014.15-.023.034-.022.053-.048.102-.059.05-.011.098.01.15.007.028-.002.064-.014.089-.024.019-.007.03-.022.049-.028.064-.021.146.04.201-.014.032-.031.054-.066.115-.08.031-.007.06,0,.094,0,.021-.002.02-.002.037-.005.009,0,.013-.011.026-.012.017,0,.031.011.046.011.036,0,.082-.011.12-.012.029-.002.058,0,.088.005-.023.011-.047.023-.072.034M9.51,11.402c-.136.008-.337.05-.453.018-.15-.04-.331-.182-.319-.264.012-.07.079-.239.184-.168.176.12-.098.261.252.286.076.005.195-.013.262.014.018.008.149.11.074.114M8.614,8.901c-.124.005-.099-.066-.009-.084.037-.007.072.007.102.009.007,0,.059.002.061.002.068.012.105.032.158.07.055.038.257.148.223.201-.158.014-.159-.045-.254-.107-.065-.041-.251-.03-.281-.091M8.511,5.597c.012-.009.026-.012.038-.022-.082-.056-.356-.04-.206-.145.111-.077.438-.007.307.048.037.036.44.205.186.233.056.028.085.075.065.123-.123.017-.358-.124-.135-.158-.024-.022-.228-.099-.255-.079M6.754,10.387c-.073-.027-.18-.028-.181-.098-.02,0-.077-.002-.091-.013-.023-.02.015-.023.013-.029-.014-.037-.062-.076-.062-.112.086-.024.197.014.266.047.061.03.055.045.072.086.006.018-.01.023.007.044.016.019.057.027.08.041.15.089-.008.07-.104.034M6.281,8.417c-.06-.019-.14-.022-.214-.017-.027.062-.032.062-.174.057-.075-.003-.177-.001-.232-.018.175-.056-.018-.128-.07-.174-.084-.075.066-.063.156-.105.086-.039.075-.108.275-.066.166.034.062.058.085.107.026.05.219.062.245.11.015.028-.062.08-.071.106M6.571,7.674c.022.178-.286-.032-.322-.076.062-.037.316.024.322.076M28.374,9.714c.033.003.066.002.101-.002h.004c.033-.006.066-.011.1-.016.042-.006.082-.013.123-.019.018-.003.034-.005.051-.008.031-.004.06-.009.09-.014.138-.022.277-.045.414-.07.036-.006.071-.013.104-.02h.003c.003.031.007.062.012.089,0,.003.001.004.002.007-.188.041-.368.064-.518.087-.155.023-.228.079-.236.139-.054.003-.106.005-.16.006.011-.054-.028-.113-.098-.159-.011-.006-.022-.014-.033-.02-.009-.004-.018-.008-.026-.012.02.006.043.01.067.012M29.516,10.404s-.001,0-.002-.002c.074-.029.1-.088.074-.135.089-.02.149-.057.181-.1.081.006.166.008.251,0h.004c.006,0,.013.001.019.002.083.003.165.002.248,0,.023.045.065.086.125.119-.098.009-.195.021-.291.036-.011.002-.02.003-.03.005-.185.014-.374.049-.507.105-.044-.003-.088-.007-.132-.011.015-.007.035-.014.06-.02M30.381,9.345c.031-.006.119-.013.13-.027.171.03.036.027.186-.004.032.01.147.01.179.02.108.035.178.11.239.026.032.006.06.096.091.105-.048.014-.055.021-.11.032-.115.019-.276-.022-.244.052-.388-.041-.353.009-.582.149-.076,0-.151.006-.226.013.013-.026.019-.054.022-.08.051-.02.103-.042.154-.065.054-.025.037-.075-.015-.091-.091-.026-.185-.042-.279-.052-.001-.002-.002-.005-.003-.007.175-.02.283-.045.458-.071M17.503,20.149c-.051-.029-.435-.102-.473-.139-.058-.054,2.188.03,2.252-.002.788-.405-1.079-.753-1.393-.879-.153-.061-.398-.252-.492-.367-.2-.245-.44-.446-.502-.743-.067-.316-.169-.535-.22-.838-.05-.285-.098-.484-.109-.775,0,0,.014-.251.056-.335.244-.487.356-.706.441-1.244.027-.173.082.064.124-.124.002-.006.092-.055.146.098.056.153.084.195.127.216.041.021.01.172.083.133.056.188.267.165.266.188.076-.077.034-.14.132-.119.089.019.096-.107.136-.08.012.008.093.098.136-.046.05-.161.04-.404.07-.383.092.063.025-.004.092.021.061.024.044.117.055.167.009.041.051.118.066.168.07.237.223.164.275.175.034.006.065.06.092.132.035.096.061.093.105.091.013.02.066-.036.115.047.024.042.014.148.038.183.042.06.139.127.161.111.033-.023.066-.079.128-.023.024.025.052.053.079.083.038.041.078.086.116.125.027.028.055.067.082.103.042.057.079.107.104.103.047-.004.105-.02.156-.042.052-.022.153.112.173.084.041-.058.121-.083.188-.09.076-.009.107-.016.154-.021.019-.002-.007-.219-.019-.314-.012-.093-.029-.205-.035-.279-.004-.051.04-.038.054-.036.033.005.005-.095.041-.098.026-.002.105.043.105-.166,0-.062.147.083.105-.126-.01-.044.065-.03.049-.077-.024-.063.143-.003.09-.049-.033-.027.077.154.028.042-.021-.05.063.063.098-.014.028-.064.061-.009.084.014.069.069.14.057.195.084.068.033.074.02.153.028.085.008.062-.161.14-.154.094.008.089-.06.13,0,.018.027.087.108.135.111.022.002.168.015.23-.058.019-.022.006-.147.036-.151.094-.009.041-.074.069-.014.026.053.007-.054.084-.041.069.011.031.004.07.041.01.01.033.032.042.042.015.018-.015.19,0,.21.035.045.074.188.056.237.085.033.159.2.265.196.112-.005.106.182.216.181.024,0,.211.202.231.189.016-.012.197.064.209.052.034-.036.242.105.293.105.122,0,.046-.172.137-.231.053-.035.155-.095.188-.135.025-.03.098-.143.083-.179-.015-.041.034-.107.084-.157.026-.025-.012-.104.024-.104.051,0,.017-.136.064-.126.03.005-.007-.006.021,0,.067.015.01-.037.056,0,.02.016.01.063.035.077.042.022.078.22.126.237.038.014.095.057.125.077.055.034.118.129.16.167.045.042.155-.167.228-.16.103.009.173-.004.272.021.095.023.154.005.223-.029.043-.021.078.028.142.001.014-.006.116.075.197.133.084.06.159.018.167.005.009-.012.119.185.216.176.119-.011.26-.206.196-.195-.042.007.238.022.286-.057.022-.034-.107-.214-.091-.244.022-.039-.029-.122-.035-.132-.007-.014-.067-.116-.125-.214-.057-.092-.113-.182-.126-.191-.041-.031-.098-.121-.167-.133-.027-.005-.087-.063-.112-.07-.019-.005.01-.077-.007-.084-.03-.009.133-.11.132-.139-.007-.252-.027-.049-.223-.23-.029-.028-.141-.046-.188-.05-.027-.003-.161.047-.189.042-.024-.004-.178.076-.202.071-.021-.007-.142.042-.16.034-.03-.012-.188.092-.217.08-.021-.007.01.039-.013.026-.013-.009-.013-.046-.027-.056-.019-.013-.094-.039-.119-.049-.014-.005-.074-.014-.084-.021-.019-.013.035.006.021-.006-.027-.027.036-.027-.035-.021-.009-.02.017-.036.007-.057-.01-.022.015-.085,0-.104-.025-.031-.025-.048.007-.077.07-.064.172.084.215.013.041-.066.175-.134.147-.195-.009-.021-.08-.141-.091-.161-.01-.019-.289-.007-.298-.026-.017-.04.021-.044-.003-.079-.016-.025-.031-.07-.069-.084.008-.017.01-.022.014-.042.004-.018-.013-.015-.014-.027,0-.009.028-.007.028-.007-.005-.012-.007-.023-.014-.036-.016-.028.004-.021.025-.048.028-.04.217.083.226.027.004-.028.175-.045.168-.069-.007-.021.138-.141.126-.161-.005-.006-.02-.218-.021-.224-.003-.005-.206.019-.217-.083-.007-.066-.199-.093-.209-.105-.008-.009-.24.076-.259.071-.085-.022-.154,0-.23-.028-.052-.02-.093.027-.161.028-.056,0-.111.009-.167.013-.147.012-.082-.011-.188.042-.102.052-.021.042-.147.028-.056-.006-.075.004-.105-.021-.03-.024-.035-.002-.062-.028-.013-.012,0-.033,0-.049,0-.044-.005-.052,0-.098.003-.039.091.015.083-.02-.007-.032.051-.078.105-.063.032.009.055-.031.091-.021.042-.055.035-.07.126-.07.037,0-.018-.112.062-.084.048.018.033-.015.083-.007.013.002.061-.061.071-.055.015.008.074.016.084.021.061.029.076-.014.138-.021.056-.007.108-.076.161-.064.026.007.022-.046.049-.041.068.012.248-.041.238.028.072-.01.105-.076.162-.048.037.019.048.016.097.021.062.006.06-.054.07-.007.007.033,0,.032.042.049.042.019.109.129.159.138.05.01.115.047.167.057.056.009.182.024.238.027-.02.056.038.025.083.035.08.018.024.012.071.035.019.008.067.079.091.084.031.006-.058.156-.014.16.029.002-.077.171-.105.356-.018.113.031.266.021.356-.01.088.095.198.112.202.015.006.071.044.111.063.05.025.108.047.168.077.082.041.163-.02.195-.014.043.009.071.069.091.147.021.081.034.184.045.272.016.124.032.331.066.301.017-.015.087.053.159.12.071.069.066.332.086.319-.014-.006.061.019.145.038.06.014.125.025.169.018.067-.009.152-.135.174-.147-.029-.022.078-.125.217-.139.053-.006.205.085.23.077.014-.004.146-.008.161-.133.023-.033.067-.093.09-.133.034-.056.014-.155.035-.216.035-.098.096-.046.056-.118.006.104.028-.012.029-.092,0-.065-.009-.104.013-.098.07.022.078-.048.105-.069.095-.073.006.065.146.021-.007-.014.127.081.112.07.059-.039.297.144.286.105-.011-.042.164-.001.175-.035.011-.034.079-.137.042-.154-.047-.022-.002-.178-.042-.202-.024-.016.032-.071.02-.098-.008-.021.017-.084.022-.097.009-.029-.019-.068.049-.064.055.003.052-.032.105-.041.041-.009.13.058.174.055.048-.003.211.011.257,0,.024-.006.269-.041.287-.048.067-.031.112-.133.154-.231.027-.064-.201-.173-.161-.217.019-.019-.118-.188-.181-.202-.036-.007-.188-.194-.15-.216-.075-.047-.331-.133-.304-.199.01-.024-.019-.072-.031-.094-.009-.016.163-.06.156-.085-.013-.051.264.001.326-.013.059-.014-.02-.01.072-.028.036.025.008.004.116.032.086.021.036.05.105.041.029-.004.105.082.135.083.011.002.082.092.09.094.045.018.158.109.211.102.083-.01.009-.049.132-.066.027-.004.16.054.188.056.021.002.064-.081.078-.076.033.009.223-.021.23-.14.004-.081.188-.24.293-.245.173-.007.182-.25.336-.321-.017-.025,0-.24.027-.258-.058-.035-.073-.163-.063-.209.004-.013-.107-.119-.107-.129,0-.011.023-.011.017-.025-.006-.013-.038-.014-.05-.022-.027-.015-.051-.031-.078-.044-.021-.01-.11-.007-.131-.018-.01-.006-.073-.035-.084-.042-.014-.011-.085-.021-.104-.035-.014-.01-.057-.051-.07-.062.033-.031-.005-.055.042-.063.048-.01.085-.068.14-.063.061.004.106.04.174.035.044-.004.12.04.168.041.214.004.004.05.223.008.018-.004-.014.042.182,0,.053-.013-.02.024,0,0,.083-.109-.014-.059.062-.14.045-.05-.1-.086-.178-.126-.038-.019-.114-.034-.145-.053-.033-.017-.277-.013-.316-.02,0-.083-.395-.053-.492-.063-.446-.048.081-.196.367-.231.097-.011.312-.022.409-.031.102-.009.234.027.282-.021.037-.034.233-.026.231-.062-.004-.061.14-.057.094-.074-.038-.013.085-.06.073-.094-.024-.064.186-.157.188-.209.002-.041.015-.176-.062-.189-.052-.009-.158-.033-.21-.084-.046-.043-.177-.12-.22-.115-.017.003-.132-.097-.177-.115-.026-.009-.049-.014-.022-.105-.063.002-.138-.017-.168-.042-.032-.026-.36-.073-.397-.093-.043-.024-.157-.145-.178-.179-.094-.147.418-.123.429-.156.015-.043.558-.138.556-.179-.003-.042.206-.114.145-.139-.054-.024,0-.044-.048-.071-.029-.014-.041-.043-.063-.055-.032-.02-.082.02-.112,0-.054-.036-.045-.031-.139-.035,0-.014-.238-.057-.042-.112-.099-.005-.072-.036-.168-.021-.036.005-.207.035-.217.029-.004-.002-.008-.075-.013-.078-.04-.023-.135-.003-.181-.02-.052-.02-.049-.103-.049-.14,0-.009-.01-.095-.015-.105-.003-.008.065-.064.064-.07-.015-.067.349-.163.397-.167.017-.029.017-.072,0-.104-.02-.043-.103-.14-.133-.14-.04,0-.036-.069-.069-.07-.061-.002-.164-.011-.222-.09-.032-.044-.021-.042-.076-.028-.067.017-.019-.029-.092-.028-.07.001-.042-.032-.098,0-.028.017-.053.019-.09.03-.06.018-.156.009-.222.004-.054-.005-.095-.007-.132-.036-.01-.007-.005-.02-.013-.028-.011-.01-.023-.001-.034-.011-.027-.024-.019-.033-.063-.045-.024-.006-.062-.007-.088-.011-.011-.003-.014-.017-.025-.017-.032-.003-.069.016-.101.017-.04.001-.067-.008-.103-.015-.032-.007-.128-.01-.123-.039.008-.041.228-.033.268-.044-.029-.055.139-.058.193-.087-.036-.029.003-.128.031-.158-.093-.012-.103-.138-.21-.125-.051.005-.206.1-.261.094-.049-.005-.112.038-.16.038-.098,0-.078.056-.129.085-.057.033-.066-.032-.129-.007-.07.025-.24.017-.22,0,.018-.018-.045-.056-.043-.075-.01-.006-.024-.128-.031-.135,0-.009-.021.068-.011.063,0-.024.314-.102.284-.126-.03-.022-.005-.084-.022-.115-.009-.015.238-.237.168-.199-.004-.058-.157-.17-.074-.189.106-.023-.209-.157-.271-.115-.042.028-.218.007-.263.041-.24.189-.597.315-.671.331-.081.015-.152.006-.236.026-.119.028-.239,0-.361.012-.056.005-.078.007-.129.006-.05,0-.116-.008-.166,0-.08.013-.086.062-.136.094-.057.036-.124.03-.194.041-.112.015-.164.015-.268.007-.051-.004-.066.011-.11-.01-.015-.007-.014-.023-.026-.032-.015-.01-.04-.015-.055-.025-.046-.027-.021-.007-.031-.047-.003-.011-.029-.049-.027-.058.003-.03.076-.039.079-.068.002-.02-.036-.031-.034-.051.004-.044.101-.077.122-.117.029-.055-.011-.078.034-.131.035-.04.052-.082.082-.124-.062-.018-.022-.057-.061-.084-.029-.022-.05-.023-.074-.048-.022-.021-.021-.029-.053-.044-.037-.02-.086-.027-.043-.06.014-.012.098-.029.12-.033.063-.011.196-.014.255.007.105.041.091.14.219.168.08.018.174.011.248.04.026.012.116.051.127.066.014.02-.026.044-.019.062.014.041.12.036.177.037.082,0,.152-.021.23-.018.062.003.222.018.271-.011.02-.012.013-.05.035-.066.028-.021.038-.013.071-.023.049-.016.177-.025.204-.051.004-.004,0-.057,0-.062-.005-.041-.031-.068-.013-.11.01-.024.036-.045.048-.067.015-.029.01-.062.022-.093.002-.008.034-.023.034-.024,0-.058-.094-.09-.162-.111-.038-.012-.053.003-.044-.033,0,0,.03-.009.034-.015.011-.015.004-.042.005-.058,0-.03.004-.056-.045-.061.01-.006.014-.019.031-.026-.013-.048.047-.088.058-.135.006-.027.022-.093-.007-.119-.028-.026-.131-.035-.134-.078-.005-.054.138-.066.022-.132.014-.01.025-.023.037-.035-.046-.026-.082-.057-.133-.078-.009-.005-.011-.018-.019-.02-.017-.004-.035.002-.05,0-.042-.012-.025.003-.055-.017-.011-.008,0-.022-.011-.032-.02-.016-.067-.02-.095-.022-.08-.007-.145.015-.218.021-.059.004-.167-.004-.223-.025-.057-.021-.017-.018-.05-.042-.032-.023-.074-.027-.115-.04-.051-.016-.148-.051-.153-.09-.011-.073.163-.075.234-.089.066-.012.091-.017.102-.051.005-.015-.018-.017-.005-.037.008-.011.044-.019.056-.033-.036-.013-.131-.021-.146-.048-.009-.017.018-.035.014-.053-.005-.019-.05-.065-.075-.075-.041-.018-.156-.009-.206-.003-.045.004-.095.019-.139.012.031-.06-.1-.034-.103-.08-.003-.054.149-.044.202-.047.077-.006.149-.018.232-.021.049-.002.125.008.171-.004.044-.011.011-.001.046-.021.029-.017.068-.046.075-.07.003-.011-.019-.024-.015-.036.006-.012.035-.018.039-.028.012-.025.033-.007-.006-.038-.014-.011-.077-.046-.101-.049-.067-.009-.129.027-.203.017-.05-.007-.134-.01-.14-.049-.067,0-.101,0-.102-.046-.092.004-.094-.043-.173-.041-.085.003-.155.04-.237.049-.076.008-.168-.007-.247-.008-.046,0-.097.008-.128-.013-.006-.004-.01-.029-.019-.036-.003-.002-.044-.023-.05-.025-.103-.022-.056.038-.093.066-.028.022-.152.038-.193.044-.063.01-.106.026-.169.01-.062-.018-.073-.033-.068-.074.002-.023.01-.035.004-.059-.002-.009-.024-.014-.025-.024,0-.02.035-.041.05-.06-.058-.008-.108-.024-.157-.027-.067-.004-.134.012-.202.009-.066-.004-.058-.007-.106.016-.042.021-.057.029-.111.037-.054.009-.108.004-.163.008-.063.007-.06.026-.095.052-.038.027-.113.04-.165.051-.039.007-.106.007-.131.035-.023.026.046.053.011.074-.016.011-.067-.001-.091.006-.023.007-.03.015-.048.024-.047.022-.124.035-.182.046-.034.007-.086.018-.12-.003-.049-.032.024-.049.044-.084.023-.038.017-.087.034-.126.013-.029.042-.046.043-.074,0,0-.032-.019-.034-.029-.009-.058.057-.069.13-.074.062-.005.112-.033.137-.068.064-.007.13-.013.197-.02.052-.005.252-.016.164-.081-.047-.034-.154-.005-.209-.025.036-.043.1-.081.162-.109.032-.014.037-.018.079-.029.026-.006.061-.006.085-.016.023-.011.028-.029.058-.037-.042-.029.038-.063.028-.094-.011-.032-.05-.038-.087-.045-.088-.015-.178-.002-.264-.018-.002-.004-.002-.008-.004-.011-.148.024-.07-.077-.092-.127-.042.007-.053.001-.079-.008-.011-.004-.018-.019-.03-.024-.021-.009-.059-.007-.082-.01-.032-.005-.06-.019-.083-.03-.004-.003,0-.024-.009-.03h-.029c-.023-.018-.09-.058-.102-.081-.007-.018.019-.068.039-.081.046-.029.142-.03.203-.056.049-.023.151-.053.146-.097-.002-.027-.046-.072-.082-.082-.069-.022-.131.004-.198.007-.091,0-.228-.029-.268-.083-.032-.043-.012-.068-.118-.06-.06.004-.132.014-.183.021-.062.01-.119.011-.177-.014-.065-.028-.104-.062-.186-.081-.069-.017-.089-.043-.158-.055-.061-.011-.121-.011-.148-.054-.08.009-.122-.051-.201-.031-.061.016-.078.059-.16.061-.038,0-.071-.017-.117-.007-.097.021-.144.066-.254.046-.102-.018-.192-.026-.3-.028-.042,0-.102.004-.141-.007-.002,0-.063-.028-.043-.027-.069-.002-.125.003-.185-.022-.024-.01-.041-.027-.066-.037-.028-.011-.086-.015-.104-.033-.014-.013-.007-.045-.016-.062-.008-.016-.042-.022-.038-.044.006-.023.075-.02.063-.05-.009-.024-.093-.035-.121-.048.101-.031.059-.087.039-.14-.014-.034.017-.051.008-.081-.01-.03-.057-.035-.04-.071-.041-.01-.159-.017-.125-.058-.089.004-.142-.012-.218-.028-.049-.011-.152.005-.146-.048-.118,0-.204-.022-.265-.087-.09.006-.174.009-.254.029-.072.019-.096.02-.165.016-.025,0-.04-.002-.064,0-.057.005-.112.019-.156.036-.071.025-.052.019-.039.054.018.051.01-.035-.047,0-.024.017-.076.038-.055.063.017.021-.073-.029-.077,0-.004.029.011-.046-.021-.042-.002.016-.13-.038-.111-.028-.118.06-.191-.025-.119.084-.133-.202-.149-.025-.147-.027-.022.019-.076.076-.09.096-.024.036-.076-.006-.126.015-.064.026-.083.063-.168.056-.085-.008-.125.014-.23.083-.051.035-.121-.018-.181-.007-.035.006-.098.028-.133.021-.023-.003-.053.073-.077.063-.042-.017-.148.071-.175.098.073.056-.03.102-.07.146-.018.022.036.073.042.099.002.011.054.063.055.062-.01.019-.01.04-.002.061-.029.01-.056.023-.083.035-.029.012-.076.005-.108.021-.031.016-.034.029-.044.05-.008.02,0,.041-.022.059-.028.023-.067.015-.098.033-.016.009-.02.028-.03.036-.019.019-.058.034-.063.057-.006.019.017.038.017.059.002.043-.019.051.009.093.018.027.045.044.023.075-.017.024-.061.022-.065.052-.003.026.05.071.084.082.028.012.108.008.115.041.005.024-.017.013-.034.035-.023.029-.029.014-.022.048.005.029.009.026.042.042.038.019.141.03.118.076-.016.03-.064.017-.098.03-.055.021-.088.065-.07.097.04.069.098.03.184.042.033.004.057.023.091.028.027.005.06,0,.089,0,.069.002.131.014.203.012.071-.002.147,0,.218-.004.06-.004.115-.014.16.021.092.073-.135.076-.09.132.022.028.134.02.177.034.025.009.036.024.072.03.129.023.292-.043.414-.008.115.034-.107.116-.169.131-.066.016-.081.042-.141.067-.033.014-.103.033-.115.061-.028.058-.088.004-.049.034.024.017-.035-.002-.028.02.016.043.02.004-.041.035-.057.029.014.015-.056.007-.04-.004-.037.011-.071-.007-.039-.022-.008.051-.027.029-.022-.025-.016-.017-.054-.027-.029-.007-.083-.062-.114-.071-.016-.005-.032-.009-.041-.021-.068-.089-.1,0-.133-.015-.027-.011-.042-.028-.084-.035-.045-.006-.118.019-.132.043-.01.014.084.072.075.087-.006.012-.03.019-.035.029-.016.036.013.039.061.047-.011.065-.137.079-.222.066-.022-.002-.058-.014-.073-.022-.015-.008-.003-.02-.012-.026-.046-.028-.056-.027-.065-.064-.007-.028-.004-.058-.012-.086-.011-.039-.034-.055-.068-.088-.026-.028-.045-.059-.058-.09-.022-.047.011-.069.019-.116.006-.032-.026-.072-.072-.094-.03-.013-.074-.023-.106-.035-.016-.007-.021-.013-.038-.018-.07-.016-.075.007-.109.038-.021.017-.056.031-.073.047-.031.03.003.046-.054.058-.053.011-.092-.014-.097-.045-.008-.041.01-.051-.019-.091-.011-.013-.03-.053-.045-.064-.034-.026-.102-.041-.114-.077-.005-.013.013-.031.008-.046-.008-.023-.039-.029-.045-.049-.003-.015.035-.05.041-.066.007-.02,0-.04.015-.058.022-.026.082-.065.122-.089.069-.043.166-.037.241-.071.065-.03.058-.065.146-.073.015-.086-.003-.062-.114-.091-.011-.002-.002-.012-.01-.014-.033-.008-.071-.007-.104-.016-.03-.005-.061-.016-.09-.024-.094-.024-.29-.026-.275-.112-.055-.005-.109-.011-.165-.015-.091-.006-.048-.023-.092-.048-.064-.037-.122.089-.136.004.013,0-.044-.032-.031-.032-.005-.032-.02-.068.021-.094.044-.029.189-.076.146-.147-.062.004-.063-.034-.125-.041-.052-.007-.122-.09-.178-.064-.047.023.04-.012-.053-.041-.026-.01-.115-.032-.136.01-.06-.006-.111-.004-.083-.053.01-.125-.071-.094-.105-.104-.031-.01-.027-.158-.059-.168-.032-.01-.185-.032-.21-.042-.026-.01-.131-.038-.16-.035-.068.007-.213-.008-.251.021-.059.043-.08-.01-.161-.007-.027.039-.199.021-.251.05-.039.02-.203.151-.209.097-.007-.056-.124.086-.19.118-.051.026-.173-.003-.216.021-.035.02-.083.182-.091.189-.1.088-.069.091-.007.189.018.027.035.146.119.097.023-.013.035.056.091.056.065,0,.167-.032.174,0,.012,0,.042.031.084.035.068.006.174.025.272.035.159.017.308-.002.327.005.071.029.099.11.013.123-.1.015-.121.038-.103.098.013.043-.003.067-.019.11.202.07-.048.096.02.169.059.065.156.078.236.122.015.009.021.017.041.02-.026.045-.057.091-.085.135-.032.053-.11.091-.168.133-.034.022-.097.043-.122.069-.026.029.01.064-.018.103-.042.059-.065.055-.083.12-.017.063.028-.003-.085.011-.032.004-.057-.008-.083-.021-.029-.015-.037-.031-.063-.052-.052-.042-.102.046-.073-.01.02-.039,0-.06.052-.073.036-.011.057-.029-.009-.056.015-.018.046-.027.075-.034,0-.035.029-.07.018-.1-.009-.023.012-.07.01-.094-.005-.07-.067-.052-.136-.083-.033-.016-.086-.027-.073-.052-.088-.003-.147-.058-.23-.064-.026-.001-.089-.138-.113-.14-.042-.003-.084-.123-.124-.126-.024,0-.197-.044-.224-.034-.062.024-.09.078-.119.112-.023.027-.029.148-.049.167-.022.025.011.105.015.126.012.066.032.179-.05.181-.044,0-.043.012-.076,0-.007-.002.009.005,0,0-.017,0-.047-.016-.063-.02-.014-.007-.045.023-.054.013-.012-.014.003-.034-.013-.049-.021-.018-.06-.016-.082-.035-.017-.015-.023-.045-.032-.061-.017-.034-.023-.033-.058-.053-.013.002-.026,0-.038-.005-.006-.008-.008-.016-.006-.027-.013-.008-.003-.018-.025-.029-.019-.003-.037-.006-.054-.008-.049-.011-.051-.024-.087-.041-.032-.016.065-.053.027-.065-.011-.003-.055-.046-.074-.052-.049-.017-.076.032-.031-.032.029-.041-.017-.029.01-.073-.04-.019-.011-.052-.021-.073-.007-.018-.056.027-.067.013-.003-.004.028-.073.026-.076-.022-.018.103-.332.077-.346-.017-.009-.057-.069-.07-.076-.05-.027-.101-.061-.119-.098-.053,0-.102-.016-.119-.063-.028.015-.12.002-.119-.027-.093.015-.223.04-.292-.022-.071-.063-.241.005-.343-.035-.09-.034-.127.152-.202.175-.041.012-.089.053-.133.063-.084.021-.053.013-.146-.007-.043-.01-.097.009-.14.014-.028.003-.147.043-.174.048-.044.007-.101.051-.115.092-.013.031-.054.024-.105.052-.044.023-.034.059-.073.062-.029.003-.066-.015-.085-.01-.032.009.018.091-.02.094-.038,0-.084.02-.116.02-.056.003-.091.051-.105.084-.015.045.091.121.149.14.028.009.046.008.067.022.01.006.013.025.025.034.093.063.234.005.345.006.059.002.097.003.127.029.006.004.018.036.027.045.012.014.035.015.036.035-.088.006-.088.051-.115.092.006,0,.012,0,.017.003.001.023-.039.028-.06.04.03.022.132.065.127.101-.008.045-.165.025-.224.025-.082,0-.169-.009-.243-.013-.029,0-.084-.003-.114,0-.036.004-.058.022-.096.02.014-.036-.055-.034-.093-.038.003-.034-.037-.055-.007-.088.022-.025.081-.021.081-.057,0-.01-.028-.026-.032-.038-.018-.049.025-.051-.056-.077-.065-.021-.101-.013-.18-.009-.002-.01-.014-.024-.012-.036-.05,0-.024-.019-.046-.034-.025-.016-.02-.012-.055-.02-.033-.007-.068-.006-.104-.008-.034,0-.094.008-.125-.005-.016-.003-.025-.009-.029-.019-.027-.008.007-.018-.037-.017-.042.002-.043.041-.09.034-.023-.004-.018-.024-.036-.028-.087-.02-.219.025-.3-.007-.014-.005-.027-.028-.044-.036-.032-.016-.083-.009-.091-.045-.058.002-.105-.027-.154-.022-.037.003-.079.028-.114.039-.058.019-.113.021-.177.02-.046,0-.096-.018-.136-.016-.055.002-.107.037-.158.047-.063.01-.086-.014-.138.009-.05.02-.038.058-.084.078-.043.02-.114.011-.146-.015-.007.017-.033.023-.041.035-.01.018,0,.034-.004.053-.003.024-.006.059-.046.07-.022.007-.047-.007-.058-.004-.017.005-.028-.002-.045.008-.009.007-.048.107-.043.112.019.015.102-.01.133,0-.009.043.082.062.077.094-.006.032-.049.02-.075.029-.022.007-.023.021-.052.024.022.004.041.01.055.021-.032.03-.129.02-.138.065.153.018.008.036.032.079-.045.017-.111-.002-.15.016-.028.012-.019.07-.074.069-.035-.002-.032-.029-.058-.036-.008-.003-.023.002-.032,0-.029-.004-.064,0-.094-.003.033.057-.079.059-.134.044-.01.01-.042.023-.046.033-.007.019.014.015.02.033.016.048.015.059-.082.049-.013.046.073.059.075.105-.061,0-.079,0-.098.035-.014.026-.02.083,0,.108.031.037.106.037.145.066.037.03.016.063.091.071-.008.02-.051.077-.039.099.028.052.098.024.159.047.058.021.056-.017.089.033.02.032-.015.09-.013.125.285.074.314-.059.458-.144.078-.045.357-.13.431-.071.074.062-.1.307.153.256.05-.01.229-.141.257-.01.162-.116.327.073.484.06.022.029.046.058.07.087h.02l.022.002.178.008c.089.006.178.012.268.022-.095.077-.069.193.103.226.143.029.287.037.43.037-.084.032-.139.087-.153.165-.117-.022-.235-.038-.356-.046h-.029c-.01-.007-.021-.018-.037-.028.01.01.022.02.035.028h-.009c-.011-.008-.025-.019-.043-.034l-.012-.019-.007-.009s-.004-.006-.005-.006c.001,0,.025-.002.03-.002-.053.003-.137-.002-.183.016-.075.031-.042.089.021.115-.049.034-.131.042-.2.039.024.044-.089.063-.136.057-.06-.008-.066-.042-.109-.058-.016-.007-.03-.003-.045-.007-.047-.014-.118-.037-.166-.045-.065-.011-.098,0-.153-.031-.169-.098-.393.001-.577-.018-.098-.01-.197-.028-.275.013-.063.032-.13.029-.199.053-.044.014-.053.065-.108.07-.02.002-.058-.021-.078-.024-.026-.004-.057,0-.084-.002-.075-.002-.141-.021-.21-.036-.073-.015-.15-.017-.227-.02-.098-.005-.172-.037-.261-.057-.056-.014-.137-.004-.147-.046-.01-.046.075-.074.081-.115.005-.033-.039-.038-.044-.059-.009-.035.058-.05.076-.077-.044-.015-.086-.037-.132-.049-.091-.023-.08,0-.154.015-.028.006-.054-.006-.082-.003-.017.003-.028.014-.046.016-.051.009-.088-.005-.138-.002-.016.031-.054.088-.109.098-.068.012-.11-.027-.181.016-.013.008-.056.042-.06.052-.009.024.033.044.022.07-.023.057-.265.068-.337.053-.097-.02-.203-.044-.274-.094-.094.033-.18.031-.279.039-.114.009-.09-.005-.179-.046-.058-.026-.13-.007-.172.028-.046.041-.039.062-.117.083-.047.011-.093.019-.144.019-.021,0-.051-.008-.073-.003-.065.016-.065.088-.156.085-.056,0-.068-.047-.126-.032-.029.006-.066.086-.092.106-.119.094-.301.096-.461.148-.115.039-.186.239-.015.259.087.01.263.021.291.09-.086.016-.165-.009-.225.038-.073.055.042.086,0,.13-.029.029-.105.011-.146.017-.042.007-.069.026-.102.045-.056.03-.095.041-.086.086.007.034.038.052.024.091.067-.003.164-.008.168.05.062-.002.115-.015.176-.008.02.033-.019.089-.032.123.062-.004.168.066.122.103-.016.012-.079.022-.104.029-.045.015-.113.027-.142.054-.073.077.098.076.154.102.09.043.01.06.01.102,0,.024-.021.033-.048.046-.037.018-.103.025-.146.036-.031.008-.155-.011-.191-.016-.049-.006-.091-.024-.141-.031-.052-.009-.117-.02-.165-.016-.091.006-.421.021-.488.058-.044.023-.149.123-.074.147.028.008.12.007.147.02.038.017.103.009.094.031-.017.047.058.065.126.063.063-.003.235-.046.297-.036.003.033.043.057.045.089.003.045-.086.092-.107.126-.035.049-.434.09-.622.104-.044.003-.266.084-.097.153.07.045.151.038.222.078.082.044.037.026.098.076.116-.03.104.038.178.07.042.019.031.032.105.053.027.008-.042.03.048.062.025.009.049.098.074.094.028-.004.043.144-.031.147-.063.002-.097.002-.166-.008-.082-.013-.084-.025-.161-.006-.085.021-.125-.017-.204-.002-.066.013-.185-.009-.163.037-.025-.001-.139.006-.155.021-.024.022.013.069.021.09.013.035,0,.051-.01.071-.011.021-.038.031-.073.034-.064.006-.076.013-.14.018-.093.006-.056.013-.142-.018-.097-.034-.153-.021-.248.002-.072.018-.147.039-.1.099.035.044.09.043.041.097.148.045.346-.006.498-.012.057-.002.129-.029.184-.02.037.005.05.024.095.024.07,0,.128-.036.192-.044.06-.008.104.016.165.02.029.002.091-.002.115.007.019.007.013.025.033.033.021.009.013.008-.01.017-.07.03-.061.06-.054.063-.062.078-.134.052-.252.056-.059.002-.213.009-.238.048-.023.04.008.102.063.106-.012.013.015.029,0,.041.104.096.241.073.37.028.086-.029.074-.023.171-.034.07-.009.181-.063.199-.011.082-.01.09.093.056.125-.023.024-.009.054-.042.072-.093.044-.039.023-.129.009-.095-.013-.065.016-.15.031-.064.012-.028.007-.091.025-.044.012-.058,0-.1.011-.049.011-.103-.006-.152.006-.043.012-.077.039-.128.051-.077.017-.162.025-.236.021-.026-.002-.072-.013-.106-.013-.021,0-.015-.011-.034-.009-.021.003-.034.022-.054.026-.043.008-.129,0-.168-.016.005-.013.018-.028.034-.036-.025-.007-.058,0-.087-.005-.027-.004-.038-.013-.061-.02-.058-.017-.083-.031-.134-.016-.096.029-.064.116-.195.114-.076,0-.068-.041-.121-.057-.06-.017-.089.017-.129.037-.053.027-.081.008-.141.019-.033.006-.1.06-.11.083-.013.031.011.05-.021.082-.018.021-.036.033-.074.046-.069.023-.09.017-.089.067,0,.014.013.04.011.051-.003.015-.025.026-.026.041-.003.031.056.064.036.089-.018.022-.065.009-.07.045-.009.051.056.056-.02.091-.034.016-.081.02-.113.037.006.02.011.048.005.069-.01.03-.049.039-.06.063-.01.023.036.044.032.065-.005.039-.095.055-.133.082.041.025.055.061.098.082.025.012.076.01.099.025.024.016.01.037.02.056.011.021.029.055.068.062.051.008.105-.034.161-.015.017.006.005.031.027.036.028.006.057-.013.081-.02.026-.007.095-.013.114-.025.009-.006,0-.022.009-.031.013-.013.04-.054.054-.063.038-.025.104-.025.142-.053-.17-.06.181-.178.161-.042.08-.034.11.029.184.038-.003.008.005.018.001.028.067.003.091-.085.145-.106.069-.028.198-.023.132.033-.014.012-.041.018-.054.032-.021.023-.019.045-.046.066-.03.021-.083.027-.092.061-.005.018.025.033.023.053.028.005.086.03.078.053-.009.028-.065.013-.091.029-.022.014-.036.075-.049.098.047.026.043.039.113.029.034-.005.135-.047.128.01.048-.059.349-.104.388-.027-.039.01-.072.02-.113.026-.015.003-.033-.003-.048.003-.029.011-.039.023-.029.046-.04.015-.331.082-.353.036-.053.016-.118.016-.171.03-.036.009-.026.013-.058.029-.077.035-.191,0-.28.036-.059.025-.098.061-.159.078-.043.014-.194.039-.218.005-.09.026-.196.012-.268.058-.075.046-.106.09-.202.122.022.046-.012.098-.098.094-.056-.002-.075-.036-.125.004.053.045-.092.088-.133.103-.039.016-.156.022-.18.052-.009.013.013.032.008.047-.005.014-.04.052-.06.06-.028.01-.061-.001-.089.008-.024.008-.076.051-.08.066-.014.044.049.048.062.082.008.023-.026.073-.044.093.06.008.127-.024.184-.007-.017.028.022.045.013.065-.01.022-.065.035-.097.046.019.033.047.037,0,.061-.046.025-.107.007-.152.043.052.057.185.006.139.103.073-.011.142-.03.216-.041.026-.004.077-.006.097-.014.03-.015.043-.046.082-.062.067-.026.053-.009.072-.057.017-.037.038-.038.083-.053.126-.04.221-.094.343-.128.144-.039.178-.158.352-.184.013.01.029.021.044.031.039-.075.201-.044.198.031-.002.04-.075.072-.104.101-.015.015-.028.06-.049.071-.038.017-.064-.004-.096,0-.065.006-.121.028-.192.028-.041,0-.061-.007-.097.005-.063.023-.079.079-.137.102-.051.02-.137.017-.143.06-.003.034.081.175.117.198.028.019.263.044.149.096.032-.003.066-.004.099.002.014.036-.043.066.001.091.016.01.078.011.101.016-.009.041-.031.104.051.103.063-.001.132-.074.196-.072.076.001.119.085.036.107.038.036.011.068-.048.07.069.024.014.078-.043.086-.046.007-.112-.008-.161-.006.062.044-.121.072-.178.041.007.058-.086.053-.147.044-.039.053-.03.071,0,.116.061.091-.007.052-.113.057-.069.004-.103.021-.094.064.005.021.025.037.026.058.002.022-.016.041-.009.065.006.022.035.026.028.051-.004.013-.026.022-.034.033-.023.034-.013.045.016.077.027.029.052.027.086.048.056.038.011.056.005.096-.011.058.082.051.135.094.04.032.041.059.122.066.075.007.181-.029.227-.066.021-.018.037-.066.072-.073.022-.005.027.008.044.007.067-.001.175-.004.145.065.032-.031.085-.035.122-.01.04-.066.076.008.135,0,.034-.005.083-.055.113-.07.029-.014.13-.051.156-.029.028.023-.024.061-.019.083.069-.004.11.033.087.073-.012.022-.063.033-.033.056.015.012.099,0,.124,0,.047,0,.144.013.184.04.056.037-.025.048-.064.076.02.01.044.015.069.022-.013.045-.168-.015-.146.052-.088.018-.134-.004-.217-.011-.069-.006-.126-.007-.193-.017-.05-.008-.091,0-.145-.005-.024,0-.038-.02-.07-.017-.032.002-.015.017-.039.021-.054.011-.098.007-.151.03-.032.014-.061.035-.084.053-.017.014-.009.02-.033.033-.036.021-.104.019-.135.046-.04.037-.006.074-.074.106.03.001.078.004.083.028.003.012-.042.029-.044.046.05.007.197.005.177.063-.018,0-.041.004-.059.002.085.063-.368.116-.412.124.001.041-.128.023-.167.019.025.069-.162.089-.221.1-.035.007-.146.178-.182.182-.029.002.163.196.233.164.037-.017.07-.05.119-.055.025-.004.047.005.072.004.02,0,.041-.002.06-.005.067-.01.094-.015.163-.012.065.003.118-.019.185-.026.059-.006.123-.022.169.006.024.013.065.054.054.072.071,0,.139-.016.152.041.031,0,.075.009.103.005.033-.004.054-.026.089-.026.047,0,.088.031.058.058.056-.009.112-.013.168-.028.08-.021.085-.009.162.004.039.007.063-.009.083.024.005.008-.005.043-.013.05-.034.026-.141.023-.187.044.017.031.088.02.105.053-.017.012-.036.023-.056.033.045-.001.113.015.108.05.049.001.104-.028.152-.01.026.009.046.045.06.059-.049.019-.108.031-.148.052-.018.01.018.029-.039.041-.04.009-.082-.008-.107-.025-.025.02-.062.032-.089.051.021.012.049.017.073.025-.016.013-.037.026-.055.039.061-.004.037.038.118.031.064-.006.128.008.188.001.063-.007.091-.046.159-.021.042.017.042.026.095.032.016.003.04-.003.056-.001,0,.008.004.019.001.027.025-.014.054-.063.089-.064.053-.002.031.021.045.038.049.057.079.105.203.078.044-.01.068-.03.104-.05.052-.029.088-.046.121-.084.006-.008-.004-.018.018-.034.028-.022.06-.013.09-.029.014-.008.027-.032.038-.036.038-.016.05-.001.1.006.051.009.15.015.137.063-.01.038-.126.086-.178.09-.003-.006-.006-.012-.007-.019-.023.009-.031.029-.051.038-.031.012-.016.001-.043.006-.021.004-.063-.002-.085.004-.042.013-.06.034-.071.068-.013.046-.01.089.044.108.07.025.117-.009.191-.01.099,0,.013.201.098.196.042-.003.123.132.158.116.072-.035.092.118.199.133.009,0,.027.035.047.08.021.051.022.205.043.262.025.067.073.114.077.118.054.006.135.034.202-.034.038-.039.076-.166.092-.182.017-.021.049-.072.083-.07.043.003.085-.035.118-.042.012-.002.038.009.068.022.043.019.09.043.1.034.01-.009.063.115.112.146.048.032.141.124.147.099.089.293.21.468.299.53.063.042.111-.082.119-.091.007-.006-.029-.168-.006-.251.018-.07.11-.059.118-.063.017-.012.097-.066.119-.077.041-.02.104.117.125.105.01-.006.158.176.209.181.087.01.219.079.238.077.028-.003.224.105.217-.035.001-.04-.025-.229-.029-.272-.006-.102-.023-.243-.028-.203.076.017-.112-.097-.062-.195.022-.045.014-.14.048-.126.022.01.101-.002.126,0,.106.01.112-.07.202-.104.057-.014.053-.08.029-.119-.018-.029-.027-.115-.008-.119.134-.023-.121-.146.008-.181.006-.001.055-.025.062-.028.069-.025.083-.101.147-.084.007.002.159.004.167.007.011.004.11.007.168-.007.064-.016.04-.229.091-.272.03-.026-.063-.195-.004-.213.087-.026.133-.107.211-.096.082.012.056.02.109-.014.004-.002.057-.002.062-.006.037-.018.133-.016.126-.046-.006-.025.081.024.089-.011.005-.024.05.037.084.032-.021.104.217-.073.184-.178.052-.009.344-.141.369-.182.04-.064-.063-.024-.1-.058-.028-.027.027-.052.004-.078-.026-.03-.107-.035-.152-.042.02-.058.048-.079.071-.114.034-.053.18-.035.241-.032.042.002.227.034.268.019.035-.014.022-.053-.016-.068.009-.012.091-.035.099-.048-.047-.01-.353-.041-.407-.049-.001-.005,0-.008.004-.013-.065-.005-.134.013-.2.012.032-.014.068-.022.099-.039-.051-.012-.127.008-.182.006.007-.023.054-.034.074-.055-.057-.044.911-.035.98-.076.04-.025.024-.049.091-.057-.014-.04.026-.049.07-.058.021-.004.052,0,.073-.009.028-.015.006-.026.021-.041.059-.053.14.01.186-.029.017-.016.004-.04.024-.053.02-.016.05-.014.08-.018.072-.013.161.019.186-.027.014-.028.094-.129.062-.154-.018-.011-.184-.031-.177-.053.004-.016.054-.024.068-.035.011-.008.021-.024.024-.035.005-.014.006-.038.002-.053-.007-.018-.043-.029-.048-.044-.004-.011.015-.022.013-.034-.004-.015-.026-.027-.046-.033-.054-.015-.109,0-.157-.031-.041-.026-.004-.072.007-.102.012-.029.008-.056-.026-.076-.032-.02-.072-.039-.026-.074.014-.009.033-.006.049-.019.014-.012.014-.024.021-.037.011-.023.026-.048.046-.068.006-.008.025-.028.038-.031.03-.007.067.018.098.012.03-.006.096-.047.12-.062.014-.009.024-.026.038-.033.026-.011.059-.005.087-.012.044-.013.147.109.169.081.021-.028.032-.154.07-.175.039-.022-.039-.099-.014-.125.035-.037.113-.069.163-.098.118-.068.238-.136.361-.199.244-.126.503-.239.784-.326.009-.003.017-.005.026-.008.246-.031.532.045.784.074.064.038.129.075.177.119.144.13.246.28.333.429.175.293.319.595.477.892.089.166.217.322.31.487.126.228.223.461.32.695.047.11.042.229.073.342.026.089.079.178.14.26.037.23.066.328.15.523.001.003.025.068.027.07.021.306.078.404.081.712,0,.063.002.189.003.251-.076-.117-.105-.134-.188-.249-.093-.13-.191-.26-.306-.383-.062-.066-.13-.132-.205-.192-.036-.031-.075-.058-.116-.085-.038-.025-.084-.039-.119-.063-.023-.016-.06-.042-.025-.062.033-.019.104-.004.145-.019.027-.01.1-.038.071-.063-.019-.018-.102-.02-.131-.023-.08-.01-.028-.03-.029-.057,0-.018-.028-.03-.006-.046.017-.014.042-.01.066-.018.035-.012.075-.038.092-.059.005-.007.002-.017.01-.025.006-.006.022-.009.025-.013.009-.009.007-.021.007-.033-.085-.021-.183-.041-.274-.029-.057.008-.081.011-.137,0-.037-.006-.082-.01-.099-.035-.02-.029.018-.043.035-.068.003-.005-.009-.011-.005-.016.005-.008.018-.011.025-.019.017-.021.076-.007.068-.028-.017-.048-.023-.148-.126-.146,0,.003.06.033.063.034-.066-.014-.076-.081-.027-.097-.056-.015.006-.031.041-.048.05-.027.021-.04.078-.05.003-.017-.055-.036-.043-.05.011-.015.024-.022.031-.039.005-.01.025-.033.025-.04,0-.013-.021-.03-.028-.042-.005-.011.109-.03.098-.038-.019-.015.002-.042-.021-.055-.036-.023.045-.038.028-.064-.022-.033-.165-.032-.133-.07.029-.033.023-.043-.021-.076-.022-.018.004-.073,0-.097-.002-.013.048-.128.042-.141-.007-.018-.051-.041-.096-.059-.039-.015-.079-.027-.099-.031-.036-.007-.001-.114-.028-.238-.022-.101.118-.161.094-.241-.018-.06-.083-.45-.272-.429-.042.004-.041.137-.104.199-.056.053-.071.07-.105.063-.029-.006-.053-.054-.085.021-.026.063.018-.028-.031.041-.029.042-.024-.045-.042-.094-.014-.037-.047-.014-.041-.052.018-.122-.04-.122-.032-.178.006-.038-.045-.084-.063-.095-.036-.02-.022-.096-.062-.115-.031-.013.073-.208.041-.209-.027-.001-.115-.167-.272-.094-.05.024-.13.096-.157.094-.027-.003-.131-.083-.168-.042-.037.041-.067-.168-.094-.168-.023,0-.095-.076-.135-.104-.022-.015-.305-.022-.284.104.009.053-.106.161-.125.147-.168-.119-.349.015-.367.042-.022.034-.017.389-.03.388-.12-.007-.089.153-.085.23.002.049.112.143.115.199.003.036.061.094.063.126.004.07-.023.07-.032.073-.026.01-.034.031-.061.021-.064-.021-.107-.006-.126,0-.043.014-.145.008-.2.011-.039.002-.114.051-.135.083-.043.063.051.185.03.209-.008.011.011.096,0,.105-.021.018-.022.066-.052.073-.056.016-.031-.02-.087-.038-.054.051-.161-.195-.209-.168-.029.016-.064.159-.112.168-.013.002.008-.087-.032-.145-.019-.028-.062.008-.083-.026-.016-.025.021-.1.005-.125-.019-.031-.093-.046-.099-.079-.027-.137-.186-.107-.199-.11-.017-.003-.15.085-.168.089-.03.008-.198.004-.21.021-.021.029-1.64.33-1.612.351.146.104.318.572.293.596-.046.048-.193.278.163.32.016.002.2-.051.135-.027-.044.017.085.012.032.016-.034.003.011.009.031.027.069.057.128.066.111.078-.044.027.018.026-.017.062-.083.092.052.064.044.083-.013.034.05.088.084.112.029.02.246.011.223.034-.011.012.354.095.329.112-.039.027.01.054-.05.042-.031-.006-.21-.029-.201.007,0,.01.023.063.034.07.026.016.061.034.077.055.014.023.12-.007.105.015-.016.02-.117.045-.161.021-.004.023-.132-.021-.168-.021-.037.001-.166-.082-.203-.084-.057-.003-.186.03-.159.056.024.024-.152-.054-.189-.021-.067-.024-.109.041-.147.07.018.012-.172.002-.174.02-.049.006-.136.1-.168.084-.162-.081-.081.222-.111.224-.141.007-.067.084-.091.209-.012.066.04.135.021.154-.098.098-.092.287-.029.412.018.034.129.049.148.077.033.051.101.159.104.16.007.001.133-.005.245.035.065.024.144-.035.203-.028.062.008.112,0,.131-.035.015-.024.16.063.283.097.085.024.16.021.171-.062.009-.062.177-.075.217-.013.031.003.185.185.216.181.032-.004.206.077.258-.071.012-.029.297.105.287-.062-.002-.032.279.041.195-.147-.022-.05-.046-.22.021-.23.061-.008.067.002.125,0,.054-.002.057-.06.105-.056.039.004.117-.087.14-.105.032-.024.064.048.077.057.012.008.111,0,.118.042.029.153.136.117.161.132.04.023.105-.152.153-.16.067-.013.113-.101.161-.078.025.013.061.123.098.119.041-.006.102.086.14.076.068-.015.064.074.118.099.034-.02.066.173.112.174.063.002.091.175.209.021.015-.018.027-.164.042-.174.019-.013.118,0,.07-.405,0-.016-.011-.23-.012-.242,0-.009-.027-.033-.036-.041-.018-.015-.045-.035-.071-.046-.034-.015-.074-.016-.107-.031-.064-.027-.004-.1.026-.107.029-.004.024-.007.051-.002.046.009.07.032.12.035.054.004.065-.004.099-.026.034-.022.069-.046.118-.048.038-.001.099.023.082.05-.011.018-.045.013-.036.035.007.015.038.018.043.036.008.036-.045.044-.061.072-.013.023.01.038.021.058.009.017-.053.148-.042.166.027.037-.015.236.05.238.026,0,.026.279.139.138.037-.045.105.172.154.025.009-.029.048,0,.063-.031.012-.03.064-.034.069-.063.004-.015.058-.015.048-.028-.02-.03.06.046.043.014-.019-.033.023-.036.062-.006.043.031.074.03.119.055.037.021.066.006.099.021.044.021.149.089.198.08.026-.004.109.103.125.126.126.168.24-.162.273-.157.126.018.093-.251.052-.307-.018-.026-.026-.196-.048-.217.025-.006.041-.025.062-.035.111.085.019-.146.105-.048.171.191.188.23.321.434.141.216.266.437.398.654.097.161.084.251.218.42.017.022.026.13.026.153.002.048.013.133.015.181.004.091-.008.089-.013.188-.006.115-.007.215-.016.329-.01.133-.014.218-.042.337-.023.097-.059.232-.104.34-.035.083-.423.489-.503.572-.24.251-.932.401-1.141.465-.653.195-1.267.342-1.015.492.255.152,1.883.229,1.691.377,1.056.215,4.057.027,3.964-.027"/>
  </g>
  <path class="st0" d="M111.96,20.535H.571c-.208,0-.377-.169-.377-.377s.169-.377.377-.377h111.389c.208,0,.377.169.377.377s-.169.377-.377.377"/>
  <path class="st0" d="M5.076,24.949c0,.59.005,1.02.01,1.125.005.14.017.363.062.424.072.106.289.223.73.223.567,0,.947-.112,1.282-.402.356-.307.467-.812.467-1.387,0-.707-.295-1.165-.535-1.394-.512-.49-1.148-.556-1.583-.556-.111,0-.317.016-.361.038-.051.023-.067.05-.067.112-.005.189-.005.675-.005,1.114v.703M4.378,24.336c0-.848,0-1.004-.011-1.181-.011-.19-.055-.279-.24-.318-.044-.012-.138-.017-.217-.017-.061,0-.095-.012-.095-.05,0-.039.039-.051.124-.051.294,0,.645.017.802.017.172,0,.524-.017.858-.017.697,0,1.627,0,2.234.636.279.29.541.752.541,1.416,0,.702-.295,1.236-.607,1.553-.257.263-.836.659-1.868.659-.199,0-.428-.017-.64-.034-.211-.016-.407-.033-.546-.033-.062,0-.184,0-.318.006-.128,0-.273.011-.384.011-.072,0-.112-.017-.112-.056,0-.027.022-.045.09-.045.083,0,.149-.011.2-.022.111-.022.14-.145.162-.306.027-.234.027-.675.027-1.188v-.98Z"/>
  <path class="st0" d="M9.193,24.72c0-.719,0-.853-.004-1.003-.013-.162-.057-.211-.213-.257-.039-.011-.122-.016-.195-.016-.05,0-.084-.016-.084-.05,0-.033.04-.045.112-.045.256,0,.567.012.707.012.157,0,1.243.005,1.338,0,.089-.006.168-.022.207-.028.027-.006.055-.023.077-.023.029,0,.034.023.034.045,0,.033-.028.089-.039.306-.006.05-.017.257-.028.312-.006.023-.017.079-.057.079-.032,0-.038-.023-.038-.062,0-.033-.005-.117-.034-.173-.039-.083-.078-.15-.323-.172-.083-.012-.668-.022-.768-.022-.023,0-.034.016-.034.044v1.17c0,.028.005.051.034.051.111,0,.746,0,.857-.011.117-.012.191-.023.234-.074.04-.032.057-.06.078-.06.022,0,.04.022.04.05s-.012.106-.04.345c-.011.096-.021.285-.021.318,0,.039-.006.105-.051.105-.034,0-.045-.015-.045-.038-.004-.051-.004-.112-.016-.173-.028-.095-.089-.167-.274-.184-.089-.011-.646-.023-.768-.023-.023,0-.028.023-.028.051v.379c0,.161-.006.563,0,.703.011.322.161.395.664.395.128,0,.334-.005.461-.062.123-.055.178-.155.212-.351.012-.05.023-.072.057-.072.038,0,.043.062.043.111,0,.106-.038.43-.066.524-.034.122-.078.122-.262.122-.368,0-.663-.005-.903-.016-.24-.006-.423-.011-.569-.011-.055,0-.161.005-.278.005-.117.006-.24.011-.34.011-.061,0-.095-.016-.095-.05,0-.021.017-.05.079-.05.072,0,.127-.005.172-.017.1-.021.128-.111.145-.25.022-.201.022-.574.022-1.009v-.836"/>
  <path class="st0" d="M12.203,24.72c0-.719,0-.853-.006-1.003-.011-.162-.056-.211-.212-.257-.039-.011-.122-.016-.194-.016-.051,0-.084-.016-.084-.05,0-.033.038-.045.111-.045.256,0,.568.012.707.012.202,0,.592-.012.815-.012.613,0,.835.201.914.268.105.1.245.312.245.568,0,.669-.535,1.149-1.232,1.149-.022,0-.122,0-.145-.007-.028,0-.06-.016-.06-.049,0-.04.055-.062.161-.062.272,0,.657-.284.657-.769,0-.156-.016-.469-.29-.701-.178-.157-.378-.179-.49-.179-.072,0-.167.005-.212.022-.028.011-.038.039-.038.089v1.878c0,.435,0,.808.021,1.015.017.133.045.223.191.244.072.012.178.017.25.017.056,0,.077.029.077.05,0,.034-.038.05-.089.05-.328,0-.675-.016-.802-.016-.112,0-.424.016-.618.016-.062,0-.095-.016-.095-.05,0-.021.016-.05.078-.05.072,0,.128-.005.172-.017.1-.021.128-.111.146-.25.022-.201.022-.574.022-1.009v-.836"/>
  <path class="st0" d="M16.46,25.479c.022,0,.028-.012.022-.028l-.462-1.205c-.006-.017-.011-.044-.022-.044-.017,0-.023.027-.028.044l-.474,1.199c-.011.022,0,.034.017.034h.947M15.413,25.74c-.028,0-.034.006-.045.034l-.263.634c-.049.118-.072.234-.072.291,0,.083.045.134.196.134h.073c.06,0,.071.021.071.05,0,.038-.028.05-.077.05-.163,0-.39-.017-.546-.017-.05,0-.312.017-.568.017-.062,0-.091-.012-.091-.05,0-.029.017-.05.057-.05.044,0,.1-.006.144-.006.223-.034.308-.179.408-.419l1.281-2.981c.056-.134.094-.189.145-.189.072,0,.095.044.145.15.116.262.936,2.202,1.249,2.921.189.428.328.49.417.507.073.011.128.017.185.017.044,0,.066.016.066.05,0,.038-.027.05-.212.05-.173,0-.53,0-.942-.012-.089-.005-.144-.005-.144-.038,0-.029.01-.046.061-.05.033-.006.067-.051.045-.106l-.38-.953c-.011-.028-.028-.034-.049-.034h-1.154Z"/>
  <path class="st0" d="M19.029,25.088c0,.05.011.067.046.083.105.034.25.045.372.045.195,0,.262-.017.346-.078.15-.106.318-.313.318-.702,0-.669-.457-.842-.747-.842-.123,0-.24.006-.289.017-.035.012-.046.028-.046.067v1.41M18.405,24.72c0-.719,0-.853-.005-1.003-.012-.162-.055-.212-.212-.256-.04-.012-.123-.017-.195-.017-.051,0-.084-.017-.084-.05s.039-.045.112-.045c.255,0,.568.012.669.012.167,0,.612-.012.763-.012.312,0,.669.028.931.201.139.095.345.334.345.652,0,.351-.2.663-.68,1.047.435.536.781.965,1.076,1.26.272.274.446.295.524.312.05.011.078.011.117.011s.061.028.061.051c0,.038-.034.049-.095.049h-.467c-.275,0-.408-.027-.536-.094-.212-.106-.396-.329-.669-.697-.195-.256-.401-.573-.462-.646-.028-.028-.056-.034-.09-.034l-.439-.011c-.023,0-.04.011-.04.039v.067c0,.44.006.809.028,1.009.018.139.039.229.19.251.072.011.178.016.24.016.038,0,.061.028.061.051,0,.034-.04.049-.101.049-.284,0-.69-.015-.764-.015-.094,0-.407.015-.601.015-.061,0-.095-.015-.095-.049,0-.023.017-.051.078-.051.073,0,.128-.005.173-.016.1-.022.128-.112.145-.251.022-.2.022-.575.022-1.009v-.836Z"/>
  <path class="st0" d="M22.674,23.639l-.73.017c-.284.006-.401.038-.473.144-.051.068-.074.128-.085.162-.011.04-.021.062-.055.062s-.045-.028-.045-.079c0-.077.095-.535.106-.573.011-.062.028-.09.056-.09.038,0,.089.039.212.056.145.017.329.023.49.023h1.989c.156,0,.262-.012.335-.023.078-.011.117-.022.134-.022.033,0,.039.028.039.1,0,.1-.012.452-.012.574-.005.05-.015.078-.044.078-.039,0-.05-.022-.056-.095l-.005-.05c-.011-.123-.139-.267-.58-.273l-.618-.011v1.917c0,.435.005.808.027,1.014.017.134.045.223.19.246.067.011.178.017.25.017.057,0,.078.027.078.05,0,.033-.038.05-.094.05-.324,0-.652-.017-.791-.017-.112,0-.446.017-.641.017-.061,0-.095-.017-.095-.05,0-.023.017-.05.078-.05.073,0,.134-.006.173-.017.1-.023.128-.112.144-.251.023-.201.023-.574.023-1.009v-1.917"/>
  <path class="st0" d="M25.449,23.366c.011-.078.056-.123.094-.123.051,0,.085.023.151.151l1.315,2.641,1.316-2.674c.039-.078.083-.118.128-.118.039,0,.095.051.111.151l.446,2.925c.045.296.09.424.24.469.14.039.217.045.278.045.045,0,.078.016.078.044,0,.039-.055.056-.128.056-.122,0-.818-.023-1.014-.034-.117-.006-.144-.028-.144-.056,0-.022.022-.038.055-.05.028-.011.039-.066.022-.2l-.273-2.051h-.016l-1.054,2.117c-.111.223-.138.268-.194.268-.062,0-.118-.094-.196-.239-.116-.218-.506-.942-.563-1.077-.039-.089-.329-.685-.49-1.014h-.017l-.234,1.85c-.011.083-.017.146-.017.223,0,.089.067.123.151.14.083.017.128.023.173.023.044,0,.078.022.078.044,0,.045-.045.056-.117.056-.206,0-.429-.017-.518-.017-.095,0-.329.017-.486.017-.049,0-.089-.011-.089-.056,0-.022.028-.044.078-.044.039,0,.073,0,.151-.012.133-.016.178-.206.2-.362l.485-3.093"/>
  <path class="st0" d="M30.125,24.72c0-.719,0-.853-.006-1.003-.011-.162-.056-.211-.212-.257-.038-.011-.122-.016-.194-.016-.05,0-.084-.016-.084-.05,0-.033.038-.045.112-.045.255,0,.568.012.707.012.156,0,1.243.005,1.338,0,.089-.006.167-.022.206-.028.028-.006.056-.023.077-.023.028,0,.034.023.034.045,0,.033-.027.089-.039.306-.005.05-.016.257-.027.312-.006.023-.017.079-.056.079-.033,0-.039-.023-.039-.062,0-.033-.005-.117-.034-.173-.039-.083-.078-.15-.323-.172-.083-.012-.669-.022-.769-.022-.023,0-.033.016-.033.044v1.17c0,.028.005.051.033.051.111,0,.746,0,.858-.011.117-.012.19-.023.234-.074.04-.032.056-.06.078-.06s.04.022.04.05-.012.106-.04.345c-.01.096-.022.285-.022.318,0,.039-.006.105-.05.105-.034,0-.045-.015-.045-.038-.005-.051-.005-.112-.016-.173-.028-.095-.09-.167-.274-.184-.089-.011-.646-.023-.768-.023-.023,0-.028.023-.028.051v.379c0,.161-.006.563,0,.703.01.322.161.395.663.395.128,0,.334-.005.462-.062.123-.055.178-.155.212-.351.011-.05.022-.072.055-.072.04,0,.045.062.045.111,0,.106-.039.43-.066.524-.034.122-.078.122-.263.122-.368,0-.662-.005-.902-.016-.24-.006-.423-.011-.569-.011-.055,0-.161.005-.278.005-.117.006-.24.011-.34.011-.061,0-.095-.016-.095-.05,0-.021.017-.05.078-.05.072,0,.128-.005.173-.017.1-.021.128-.111.144-.25.023-.201.023-.574.023-1.009v-.836"/>
  <path class="st0" d="M33.402,26.286c.011.368.072.48.167.513.083.027.179.033.256.033.056,0,.084.023.084.05,0,.039-.045.051-.112.051-.317,0-.546-.017-.635-.017-.044,0-.278.017-.529.017-.067,0-.112-.006-.112-.051,0-.027.034-.05.079-.05.066,0,.155-.006.222-.022.128-.034.145-.161.151-.574l.045-2.809c0-.094.033-.162.083-.162.061,0,.128.074.211.157.062.061.797.813,1.511,1.51.334.329.986.998,1.059,1.064h.022l-.05-2.106c-.005-.29-.05-.373-.168-.418-.071-.028-.189-.028-.255-.028-.062,0-.079-.022-.079-.05,0-.04.051-.045.123-.045.256,0,.518.011.624.011.055,0,.24-.011.48-.011.067,0,.111.005.111.045,0,.028-.028.05-.084.05-.05,0-.089,0-.15.016-.134.04-.173.123-.179.391l-.055,2.987c0,.106-.039.15-.078.15-.083,0-.151-.05-.201-.101-.307-.283-.92-.868-1.432-1.364-.536-.514-1.053-1.087-1.149-1.17h-.016l.056,1.933"/>
  <path class="st0" d="M38.328,23.639l-.73.017c-.284.006-.401.038-.474.144-.05.068-.072.128-.083.162-.011.04-.022.062-.056.062s-.045-.028-.045-.079c0-.077.096-.535.106-.573.012-.062.028-.09.056-.09.039,0,.089.039.212.056.144.017.329.023.49.023h1.99c.156,0,.262-.012.334-.023.079-.011.117-.022.134-.022.033,0,.038.028.038.1,0,.1-.01.452-.01.574-.005.05-.018.078-.045.078-.038,0-.05-.022-.056-.095l-.005-.05c-.011-.123-.139-.267-.58-.273l-.618-.011v1.917c0,.435.005.808.028,1.014.017.134.044.223.189.246.067.011.178.017.251.017.056,0,.078.027.078.05,0,.033-.039.05-.095.05-.323,0-.652-.017-.791-.017-.112,0-.446.017-.641.017-.061,0-.095-.017-.095-.05,0-.023.017-.05.078-.05.073,0,.134-.006.173-.017.1-.023.128-.112.145-.251.022-.201.022-.574.022-1.009v-1.917"/>
  <path class="st0" d="M45.461,25.227c0-1.048-.629-1.694-1.421-1.694-.546,0-1.186.29-1.186,1.461,0,.975.556,1.744,1.481,1.744.346,0,1.126-.162,1.126-1.511M42.129,25.138c0-.808.568-1.855,2.056-1.855,1.237,0,2.006.685,2.006,1.772s-.791,1.938-2.056,1.938c-1.427,0-2.006-1.013-2.006-1.855"/>
  <g class="st2">
    <path class="st0" d="M47.518,25.573c0,.456.004.791.027.992.017.139.051.228.196.251.067.011.172.016.239.016.062,0,.083.028.083.05,0,.034-.032.051-.105.051-.313,0-.657-.017-.786-.017-.128,0-.44.017-.624.017-.068,0-.1-.011-.1-.051,0-.022.017-.05.072-.05.073,0,.129-.005.173-.016.099-.023.128-.112.145-.251.022-.201.022-.551.022-1.009v-.836c0-.718,0-.852-.005-1.003-.012-.162-.056-.217-.212-.257-.039-.011-.123-.016-.195-.016-.045,0-.083-.017-.083-.05,0-.034.038-.045.115-.045.252,0,.564.011.703.011.19,0,1.277.006,1.394,0,.089-.005.15-.011.201-.022.027-.006.049-.027.077-.027.017,0,.034.021.034.044,0,.034-.022.089-.039.212-.006.049-.017.328-.023.384-.005.039-.016.095-.049.095-.034,0-.062-.022-.062-.078,0-.04.005-.112-.028-.178-.033-.068-.128-.14-.312-.146l-.814-.016c-.027,0-.044.011-.044.067v1.148c0,.028.004.044.033.044l.686-.006c.083,0,.15,0,.223-.004.089-.006.161-.023.206-.085.027-.027.039-.049.066-.049.018,0,.029.016.029.044s-.023.156-.04.306c-.011.096-.016.312-.016.346,0,.039-.006.106-.056.106-.028,0-.045-.034-.045-.067s-.012-.088-.032-.145c-.023-.067-.085-.162-.235-.172-.123-.012-.702-.018-.786-.018-.022,0-.033.006-.033.04v.39"/>
    <path class="st0" d="M51.875,26.175c.012.434.084.58.196.618.095.034.2.04.289.04.061,0,.095.01.095.044,0,.044-.049.056-.129.056-.361,0-.584-.017-.69-.017-.051,0-.312.017-.602.017-.073,0-.122-.006-.122-.056,0-.034.032-.044.089-.044.072,0,.172-.006.25-.028.145-.045.168-.207.173-.692l.051-3.299c0-.111.016-.189.072-.189.061,0,.111.072.206.173.067.071.914.981,1.727,1.789.38.378,1.131,1.181,1.227,1.27h.027l-.055-2.502c-.006-.34-.055-.446-.189-.501-.084-.034-.219-.034-.296-.034-.067,0-.089-.017-.089-.05,0-.045.061-.05.145-.05.289,0,.558.017.674.017.061,0,.273-.017.546-.017.072,0,.129.005.129.05,0,.033-.034.05-.101.05-.056,0-.1,0-.167.017-.156.045-.202.161-.206.473l-.062,3.517c0,.122-.022.173-.072.173-.062,0-.128-.061-.189-.123-.352-.334-1.065-1.065-1.645-1.638-.607-.603-1.226-1.299-1.326-1.405h-.017l.061,2.341"/>
  </g>
  <path class="st0" d="M57.655,25.479c.022,0,.028-.012.022-.028l-.463-1.205c-.005-.017-.011-.044-.022-.044-.017,0-.023.027-.027.044l-.475,1.199c-.011.022,0,.034.017.034h.948M56.607,25.74c-.028,0-.034.006-.045.034l-.262.634c-.05.118-.072.234-.072.291,0,.083.045.134.195.134h.073c.06,0,.072.021.072.05,0,.038-.027.05-.078.05-.161,0-.39-.017-.546-.017-.05,0-.312.017-.569.017-.061,0-.088-.012-.088-.05,0-.029.016-.05.055-.05.045,0,.1-.006.145-.006.222-.034.306-.179.407-.419l1.281-2.981c.056-.134.095-.189.145-.189.073,0,.095.044.146.15.117.262.935,2.202,1.248,2.921.189.428.328.49.418.507.072.011.128.017.184.017.043,0,.066.016.066.05,0,.038-.028.05-.212.05-.172,0-.529,0-.941-.012-.09-.005-.145-.005-.145-.038,0-.029.011-.046.061-.05.034-.006.066-.051.045-.106l-.379-.953c-.012-.028-.028-.034-.051-.034h-1.153Z"/>
  <path class="st0" d="M60.196,23.639l-.73.017c-.284.006-.402.038-.474.144-.05.068-.072.128-.084.162-.011.04-.022.062-.055.062s-.045-.028-.045-.079c0-.077.095-.535.106-.573.011-.062.028-.09.055-.09.039,0,.09.039.213.056.145.017.329.023.49.023h1.989c.156,0,.262-.012.335-.023.078-.011.117-.022.133-.022.034,0,.04.028.04.1,0,.1-.012.452-.012.574-.005.05-.016.078-.044.078-.039,0-.05-.022-.056-.095l-.005-.05c-.012-.123-.14-.267-.579-.273l-.619-.011v1.917c0,.435.005.808.027,1.014.017.134.045.223.19.246.067.011.178.017.251.017.055,0,.078.027.078.05,0,.033-.04.05-.095.05-.324,0-.652-.017-.791-.017-.111,0-.446.017-.641.017-.061,0-.095-.017-.095-.05,0-.023.016-.05.078-.05.072,0,.134-.006.172-.017.101-.023.129-.112.146-.251.022-.201.022-.574.022-1.009v-1.917"/>
  <path class="st0" d="M62.854,24.72c0-.719.006-.853-.005-1.003-.011-.167-.057-.211-.212-.257-.04-.011-.123-.016-.19-.016-.056,0-.083-.016-.083-.05,0-.033.033-.045.106-.045.261,0,.59.012.736.012.121,0,.45-.012.628-.012.073,0,.107.012.107.045,0,.034-.027.05-.078.05-.056,0-.083.005-.145.016-.128.023-.167.09-.178.257-.012.15-.012.284-.012,1.003v.663c0,.691.134.959.374,1.148.217.173.452.19.618.19.212,0,.463-.061.658-.252.273-.256.284-.668.284-1.152v-.597c0-.719-.005-.853-.011-1.003-.011-.162-.05-.211-.206-.257-.038-.011-.123-.016-.178-.016-.056,0-.084-.016-.084-.05,0-.033.033-.045.1-.045.251,0,.58.012.586.012.056,0,.384-.012.574-.012.066,0,.101.012.101.045,0,.034-.029.05-.085.05-.055,0-.083.005-.145.016-.134.023-.168.09-.178.257-.005.15-.011.284-.011,1.003v.508c0,.529-.056,1.086-.468,1.426-.346.289-.719.34-1.037.34-.256,0-.764-.011-1.119-.323-.251-.217-.447-.569-.447-1.254v-.697"/>
  <path class="st0" d="M67.791,25.088c0,.05.011.067.046.083.106.034.25.045.372.045.196,0,.263-.017.346-.078.151-.106.318-.313.318-.702,0-.669-.457-.842-.747-.842-.123,0-.24.006-.289.017-.035.012-.046.028-.046.067v1.41M67.168,24.72c0-.719,0-.853-.007-1.003-.011-.162-.055-.212-.211-.256-.039-.012-.122-.017-.195-.017-.05,0-.084-.017-.084-.05s.04-.045.112-.045c.257,0,.569.012.669.012.167,0,.613-.012.763-.012.312,0,.669.028.93.201.14.095.346.334.346.652,0,.351-.2.663-.679,1.047.435.536.779.965,1.075,1.26.274.274.446.295.524.312.05.011.079.011.117.011.039,0,.061.028.061.051,0,.038-.033.049-.094.049h-.468c-.273,0-.407-.027-.536-.094-.211-.106-.395-.329-.669-.697-.194-.256-.401-.573-.462-.646-.028-.028-.056-.034-.089-.034l-.44-.011c-.023,0-.04.011-.04.039v.067c0,.44.006.809.028,1.009.018.139.04.229.19.251.073.011.178.016.24.016.039,0,.062.028.062.051,0,.034-.04.049-.102.049-.283,0-.69-.015-.762-.015-.095,0-.407.015-.603.015-.061,0-.095-.015-.095-.049,0-.023.017-.051.079-.051.072,0,.128-.005.173-.016.1-.022.128-.112.145-.251.022-.2.022-.575.022-1.009v-.836Z"/>
  <path class="st0" d="M72.089,25.479c.021,0,.027-.012.021-.028l-.462-1.205c-.006-.017-.011-.044-.022-.044-.017,0-.022.027-.028.044l-.473,1.199c-.012.022,0,.034.016.034h.948M71.041,25.74c-.028,0-.034.006-.045.034l-.263.634c-.049.118-.072.234-.072.291,0,.083.046.134.195.134h.074c.06,0,.071.021.071.05,0,.038-.027.05-.077.05-.162,0-.39-.017-.546-.017-.05,0-.313.017-.568.017-.062,0-.09-.012-.09-.05,0-.029.017-.05.056-.05.044,0,.1-.006.144-.006.223-.034.308-.179.408-.419l1.281-2.981c.056-.134.096-.189.145-.189.072,0,.095.044.145.15.118.262.937,2.202,1.248,2.921.19.428.33.49.417.507.074.011.129.017.186.017.044,0,.065.016.065.05,0,.038-.026.05-.211.05-.172,0-.529,0-.942-.012-.089-.005-.144-.005-.144-.038,0-.029.011-.046.061-.05.034-.006.067-.051.045-.106l-.38-.953c-.011-.028-.028-.034-.05-.034h-1.153Z"/>
  <path class="st0" d="M74.903,25.556c0,.607,0,.908.106.998.083.072.272.1.652.1.262,0,.45-.005.574-.134.061-.061.112-.194.123-.284.005-.045.016-.073.056-.073.033,0,.044.051.044.106,0,.057-.034.407-.072.547-.034.105-.057.128-.313.128-.351,0-.635-.006-.88-.017-.246-.006-.452-.011-.653-.011-.055,0-.161.005-.278.005-.117.006-.24.012-.34.012-.061,0-.095-.017-.095-.051,0-.023.017-.049.078-.049.073,0,.128-.006.173-.017.1-.022.129-.112.145-.25.022-.202.022-.575.022-1.01v-.836c0-.719,0-.853-.006-1.003-.011-.162-.055-.212-.211-.256-.039-.012-.101-.017-.162-.017-.056,0-.083-.017-.083-.05s.033-.045.106-.045c.228,0,.54.012.674.012.117,0,.518-.012.708-.012.072,0,.106.012.106.045s-.028.05-.09.05c-.056,0-.133.005-.189.017-.134.022-.172.089-.184.256-.011.15-.011.284-.011,1.003v.836"/>
  <path class="st0" d="M79.366,24.776c0,.061.011.084.05.1.118.04.284.056.425.056.221,0,.294-.022.395-.095.167-.122.329-.379.329-.835,0-.793-.524-1.021-.853-1.021-.14,0-.24.006-.296.023-.039.011-.05.033-.05.077v1.695M78.709,24.336c0-.848,0-1.003-.011-1.182-.011-.189-.056-.279-.24-.317-.044-.011-.14-.017-.218-.017-.06,0-.094-.011-.094-.051,0-.038.039-.049.123-.049.295,0,.646.015.763.015.19,0,.613-.015.785-.015.351,0,.725.034,1.026.239.156.107.379.39.379.764,0,.412-.173.791-.736,1.247.497.625.881,1.122,1.21,1.466.312.324.541.363.624.38.061.011.111.017.157.017.043,0,.066.016.066.044,0,.044-.039.056-.106.056h-.529c-.312,0-.452-.028-.596-.106-.24-.128-.452-.391-.764-.82-.223-.307-.481-.685-.552-.768-.029-.034-.061-.04-.1-.04l-.485-.011c-.028,0-.045.011-.045.045v.078c0,.518,0,.959.028,1.193.017.161.05.284.218.307.083.01.205.022.272.022.045,0,.068.016.068.044,0,.039-.04.056-.111.056-.324,0-.736-.017-.82-.017-.106,0-.457.017-.68.017-.072,0-.111-.017-.111-.056,0-.028.022-.044.088-.044.084,0,.151-.012.202-.022.11-.023.138-.146.161-.307.028-.234.028-.675.028-1.187v-.981Z"/>
  <path class="st0" d="M82.521,24.72c0-.719,0-.853-.005-1.003-.012-.162-.057-.211-.212-.257-.04-.011-.123-.016-.196-.016-.05,0-.084-.016-.084-.05,0-.033.04-.045.112-.045.257,0,.569.012.708.012.156,0,1.243.005,1.338,0,.089-.006.166-.022.206-.028.028-.006.055-.023.078-.023.028,0,.033.023.033.045,0,.033-.028.089-.039.306-.006.05-.017.257-.028.312-.006.023-.016.079-.055.079-.034,0-.039-.023-.039-.062,0-.033-.005-.117-.034-.173-.039-.083-.078-.15-.324-.172-.083-.012-.668-.022-.768-.022-.023,0-.034.016-.034.044v1.17c0,.028.006.051.034.051.111,0,.747,0,.858-.011.117-.012.189-.023.234-.074.039-.032.056-.06.078-.06s.039.022.039.05-.011.106-.039.345c-.011.096-.022.285-.022.318,0,.039-.006.105-.05.105-.034,0-.045-.015-.045-.038-.006-.051-.006-.112-.017-.173-.028-.095-.089-.167-.272-.184-.09-.011-.647-.023-.77-.023-.022,0-.028.023-.028.051v.379c0,.161-.006.563,0,.703.011.322.162.395.664.395.128,0,.334-.005.462-.062.122-.055.178-.155.212-.351.01-.05.022-.072.055-.072.04,0,.045.062.045.111,0,.106-.039.43-.066.524-.034.122-.079.122-.262.122-.368,0-.664-.005-.904-.016-.238-.006-.422-.011-.568-.011-.056,0-.162.005-.278.005-.118.006-.24.011-.34.011-.062,0-.095-.016-.095-.05,0-.021.017-.05.078-.05.072,0,.128-.005.172-.017.101-.021.129-.111.146-.25.022-.201.022-.574.022-1.009v-.836"/>
  <path class="st0" d="M85.168,26.872c-.078-.034-.095-.056-.095-.162,0-.256.023-.552.028-.63,0-.072.023-.123.062-.123.044,0,.049.045.049.078,0,.062.017.162.045.245.106.352.473.469.781.469.422,0,.679-.268.679-.601,0-.207-.049-.414-.485-.67l-.284-.167c-.58-.34-.769-.658-.769-1.076,0-.579.557-.952,1.237-.952.318,0,.568.043.696.077.045.012.068.028.068.062,0,.061-.017.195-.017.568,0,.1-.023.151-.061.151-.033,0-.051-.028-.051-.084,0-.044-.022-.19-.128-.312-.072-.089-.229-.222-.545-.222-.352,0-.669.183-.669.506,0,.212.078.379.518.624l.2.112c.647.356.847.719.847,1.148,0,.351-.134.635-.489.887-.235.166-.558.194-.821.194-.283,0-.584-.028-.796-.122"/>
  <path class="st0" d="M90.958,25.227c0-1.048-.629-1.694-1.421-1.694-.547,0-1.187.29-1.187,1.461,0,.975.557,1.744,1.483,1.744.345,0,1.125-.162,1.125-1.511M87.626,25.138c0-.808.568-1.855,2.056-1.855,1.237,0,2.006.685,2.006,1.772s-.791,1.938-2.057,1.938c-1.426,0-2.005-1.013-2.005-1.855"/>
  <path class="st0" d="M92.279,24.72c0-.719.005-.853-.005-1.003-.012-.167-.057-.211-.212-.257-.04-.011-.123-.016-.19-.016-.056,0-.083-.016-.083-.05,0-.033.032-.045.106-.045.261,0,.591.012.734.012.124,0,.452-.012.63-.012.073,0,.108.012.108.045,0,.034-.029.05-.079.05-.056,0-.084.005-.145.016-.129.023-.168.09-.179.257-.01.15-.01.284-.01,1.003v.663c0,.691.133.959.373,1.148.217.173.451.19.619.19.211,0,.463-.061.657-.252.273-.256.284-.668.284-1.152v-.597c0-.719-.006-.853-.011-1.003-.012-.162-.05-.211-.206-.257-.04-.011-.123-.016-.179-.016s-.082-.016-.082-.05c0-.033.032-.045.1-.045.25,0,.579.012.584.012.056,0,.385-.012.575-.012.066,0,.1.012.1.045,0,.034-.028.05-.085.05-.055,0-.083.005-.144.016-.133.023-.168.09-.179.257-.005.15-.01.284-.01,1.003v.508c0,.529-.056,1.086-.469,1.426-.346.289-.719.34-1.036.34-.257,0-.764-.011-1.12-.323-.251-.217-.446-.569-.446-1.254v-.697"/>
  <path class="st0" d="M97.083,25.088c0,.05.01.067.045.083.105.034.251.045.373.045.195,0,.262-.017.345-.078.151-.106.318-.313.318-.702,0-.669-.456-.842-.746-.842-.124,0-.24.006-.29.017-.035.012-.045.028-.045.067v1.41M96.459,24.72c0-.719,0-.853-.005-1.003-.013-.162-.057-.212-.212-.256-.04-.012-.123-.017-.197-.017-.049,0-.083-.017-.083-.05s.04-.045.112-.045c.257,0,.568.012.669.012.167,0,.613-.012.762-.012.313,0,.67.028.932.201.139.095.345.334.345.652,0,.351-.2.663-.679,1.047.435.536.779.965,1.074,1.26.274.274.447.295.526.312.049.011.078.011.116.011.039,0,.062.028.062.051,0,.038-.034.049-.095.049h-.468c-.274,0-.408-.027-.536-.094-.211-.106-.395-.329-.668-.697-.195-.256-.402-.573-.463-.646-.027-.028-.055-.034-.089-.034l-.44-.011c-.023,0-.039.011-.039.039v.067c0,.44.005.809.027,1.009.018.139.04.229.19.251.073.011.179.016.24.016.039,0,.062.028.062.051,0,.034-.04.049-.101.049-.285,0-.691-.015-.764-.015-.095,0-.406.015-.601.015-.062,0-.095-.015-.095-.049,0-.023.016-.051.078-.051.072,0,.128-.005.172-.016.1-.022.129-.112.146-.251.022-.2.022-.575.022-1.009v-.836Z"/>
  <path class="st0" d="M99.975,26.481c-.484-.407-.613-.942-.613-1.398,0-.324.106-.881.574-1.299.357-.312.825-.501,1.555-.501.307,0,.49.022.714.049.183.028.344.062.489.079.056.006.074.027.074.056,0,.038-.013.094-.023.261-.011.156-.011.419-.017.513-.005.067-.022.118-.066.118-.039,0-.051-.04-.051-.102-.005-.15-.067-.317-.189-.439-.168-.162-.497-.28-.947-.28-.43,0-.703.079-.926.269-.362.311-.452.768-.452,1.231,0,1.125.87,1.661,1.528,1.661.434,0,.674-.033.869-.252.083-.094.151-.228.168-.317.01-.073.022-.095.061-.095.032,0,.055.045.055.084,0,.055-.055.468-.106.63-.023.083-.044.106-.128.139-.195.078-.568.106-.886.106-.669,0-1.237-.139-1.683-.513"/>
  <path class="st0" d="M103.72,24.72c0-.719,0-.853-.005-1.003-.012-.162-.056-.211-.212-.257-.04-.011-.123-.016-.195-.016-.051,0-.084-.016-.084-.05,0-.033.039-.045.111-.045.257,0,.569.012.708.012.156,0,1.243.005,1.338,0,.089-.006.166-.022.206-.028.028-.006.056-.023.079-.023.027,0,.033.023.033.045,0,.033-.028.089-.04.306-.006.05-.016.257-.027.312-.006.023-.017.079-.056.079-.033,0-.038-.023-.038-.062,0-.033-.006-.117-.035-.173-.039-.083-.077-.15-.323-.172-.083-.012-.669-.022-.769-.022-.022,0-.034.016-.034.044v1.17c0,.028.007.051.034.051.111,0,.747,0,.858-.011.118-.012.191-.023.234-.074.04-.032.057-.06.079-.06.021,0,.039.022.039.05s-.012.106-.039.345c-.012.096-.022.285-.022.318,0,.039-.007.105-.051.105-.034,0-.045-.015-.045-.038-.004-.051-.004-.112-.017-.173-.027-.095-.089-.167-.272-.184-.09-.011-.647-.023-.77-.023-.021,0-.028.023-.028.051v.379c0,.161-.005.563,0,.703.012.322.162.395.665.395.127,0,.333-.005.461-.062.123-.055.178-.155.212-.351.012-.05.023-.072.057-.072.038,0,.043.062.043.111,0,.106-.039.43-.065.524-.035.122-.079.122-.263.122-.367,0-.664-.005-.903-.016-.239-.006-.423-.011-.568-.011-.056,0-.162.005-.279.005-.117.006-.24.011-.34.011-.062,0-.095-.016-.095-.05,0-.021.017-.05.078-.05.073,0,.128-.005.174-.017.1-.021.127-.111.144-.25.022-.201.022-.574.022-1.009v-.836"/>
  <path class="st0" d="M106.328,26.872c-.078-.034-.094-.056-.094-.162,0-.256.022-.552.028-.63,0-.072.022-.123.061-.123.044,0,.051.045.051.078,0,.062.016.162.043.245.106.352.475.469.781.469.424,0,.679-.268.679-.601,0-.207-.049-.414-.484-.67l-.285-.167c-.579-.34-.769-.658-.769-1.076,0-.579.558-.952,1.238-.952.317,0,.568.043.695.077.046.012.068.028.068.062,0,.061-.017.195-.017.568,0,.1-.022.151-.061.151-.034,0-.051-.028-.051-.084,0-.044-.022-.19-.126-.312-.074-.089-.229-.222-.547-.222-.351,0-.669.183-.669.506,0,.212.078.379.518.624l.2.112c.647.356.848.719.848,1.148,0,.351-.134.635-.49.887-.235.166-.558.194-.819.194-.285,0-.586-.028-.798-.122"/>
  <path class="st0" d="M47.57,15.91c0,.425-.016.457-.205.566-1.024.536-2.568.709-3.797.709-3.859,0-7.277-1.826-7.277-6.175,0-2.52,1.307-4.284,2.741-5.15,1.512-.915,2.915-1.024,4.237-1.024,1.088,0,2.474.189,2.789.252.33.063.882.157,1.245.173.188.016.219.079.219.188,0,.175-.109.616-.109,2.584,0,.252-.048.332-.174.332-.11,0-.142-.08-.157-.205-.048-.363-.126-.867-.536-1.308-.473-.504-1.733-1.228-3.513-1.228-.867,0-2.016.062-3.119.976-.882.74-1.449,1.922-1.449,3.86,0,3.386,2.159,5.922,5.482,5.922.41,0,.961,0,1.339-.173.236-.11.299-.315.299-.583v-1.48c0-.788,0-1.386-.016-1.859-.016-.536-.157-.788-.677-.898-.126-.032-.393-.048-.615-.048-.141,0-.235-.031-.235-.126,0-.126.11-.157.331-.157.818,0,1.811.048,2.283.048.488,0,1.323-.048,1.843-.048.205,0,.315.031.315.157,0,.095-.094.126-.205.126-.125,0-.235.016-.425.048-.425.078-.582.347-.598.898-.016.473-.016,1.103-.016,1.89v1.733"/>
  <path class="st0" d="M50.845,9.625c0-2.395,0-2.836-.032-3.341-.03-.534-.157-.786-.677-.897-.126-.032-.393-.047-.614-.047-.173,0-.268-.032-.268-.141,0-.111.11-.143.347-.143.425,0,.882.016,1.276.016.409.016.771.032.992.032.505,0,3.639,0,3.939-.016.299-.032.55-.063.676-.095.079-.015.175-.063.253-.063s.094.063.094.142c0,.11-.078.299-.126,1.024-.016.158-.046.85-.079,1.039-.016.08-.047.174-.157.174-.111,0-.142-.079-.142-.221,0-.11-.016-.378-.095-.567-.109-.283-.267-.473-1.055-.568-.268-.03-1.922-.062-2.237-.062-.078,0-.11.048-.11.157v3.985c0,.112.016.174.11.174.347,0,2.159,0,2.521-.032.377-.03.614-.078.756-.235.11-.126.173-.205.252-.205.063,0,.11.031.11.126,0,.094-.063.346-.126,1.149-.015.315-.063.946-.063,1.056,0,.126,0,.299-.141.299-.11,0-.142-.063-.142-.141-.017-.158-.017-.363-.064-.568-.078-.315-.298-.551-.882-.614-.299-.032-1.858-.048-2.237-.048-.078,0-.094.064-.094.159v1.244c0,.536-.016,1.985,0,2.442.032,1.086.284,1.323,1.89,1.323.41,0,1.071,0,1.481-.189.409-.19.598-.52.709-1.166.031-.174.063-.237.173-.237.126,0,.126.127.126.284,0,.362-.126,1.434-.205,1.749-.109.409-.251.409-.851.409-1.181,0-2.047-.031-2.724-.047-.678-.031-1.166-.047-1.639-.047-.173,0-.52,0-.897.016-.363,0-.772.031-1.087.031-.205,0-.316-.047-.316-.158,0-.078.064-.126.253-.126.236,0,.425-.031.567-.062.314-.064.394-.41.456-.867.079-.662.079-1.906.079-3.355v-2.772"/>
  <path class="st0" d="M68.298,11.31c0-3.528-2.032-5.719-4.616-5.719-1.81,0-3.875,1.009-3.875,4.932,0,3.276,1.812,5.875,4.836,5.875,1.103,0,3.655-.536,3.655-5.088M57.633,11.011c0-2.693,1.78-6.175,6.506-6.175,3.923,0,6.364,2.284,6.364,5.892s-2.52,6.458-6.522,6.458c-4.521,0-6.348-3.387-6.348-6.175"/>
  <path class="st0" d="M74.282,10.868c0,.174.032.237.142.285.332.11.805.156,1.198.156.629,0,.835-.062,1.118-.267.472-.347.93-1.071.93-2.363,0-2.236-1.481-2.882-2.411-2.882-.393,0-.677.016-.835.063-.11.031-.142.095-.142.22v4.788M72.424,9.625c0-2.395,0-2.836-.031-3.341-.032-.534-.158-.786-.678-.897-.126-.032-.393-.047-.614-.047-.174,0-.267-.032-.267-.142s.109-.142.346-.142c.835,0,1.826.048,2.157.048.536,0,1.734-.048,2.221-.048.994,0,2.048.094,2.9.678.44.299,1.07,1.102,1.07,2.158,0,1.166-.488,2.237-2.079,3.528,1.402,1.764,2.489,3.166,3.418,4.144.883.913,1.528,1.023,1.764,1.07.174.031.315.048.442.048.125,0,.189.047.189.125,0,.127-.111.158-.3.158h-1.496c-.882,0-1.276-.079-1.685-.3-.678-.361-1.277-1.101-2.158-2.315-.631-.867-1.355-1.937-1.56-2.174-.079-.094-.174-.11-.284-.11l-1.371-.032c-.078,0-.126.032-.126.126v.221c0,1.465,0,2.709.079,3.371.047.457.143.803.615.867.236.031.582.063.772.063.125,0,.189.047.189.125,0,.111-.11.158-.315.158-.914,0-2.079-.047-2.316-.047-.3,0-1.291.047-1.922.047-.204,0-.314-.047-.314-.158,0-.078.062-.125.252-.125.235,0,.425-.032.566-.063.315-.064.394-.41.457-.867.079-.662.079-1.906.079-3.355v-2.772Z"/>
  <path class="st0" d="M92.35,15.91c0,.425-.015.457-.205.566-1.023.536-2.568.709-3.797.709-3.859,0-7.277-1.826-7.277-6.175,0-2.52,1.308-4.284,2.741-5.15,1.512-.915,2.914-1.024,4.237-1.024,1.088,0,2.473.189,2.788.252.332.063.883.157,1.246.173.188.016.22.079.22.188,0,.175-.111.616-.111,2.584,0,.252-.047.332-.174.332-.109,0-.141-.08-.156-.205-.048-.363-.126-.867-.536-1.308-.472-.504-1.733-1.228-3.513-1.228-.866,0-2.016.062-3.119.976-.882.74-1.449,1.922-1.449,3.86,0,3.386,2.157,5.922,5.482,5.922.41,0,.96,0,1.339-.173.236-.11.299-.315.299-.583v-1.48c0-.788,0-1.386-.016-1.859-.015-.536-.157-.788-.677-.898-.126-.032-.394-.048-.614-.048-.142,0-.237-.031-.237-.126,0-.126.111-.157.332-.157.818,0,1.811.048,2.283.048.488,0,1.323-.048,1.843-.048.205,0,.315.031.315.157,0,.095-.095.126-.205.126-.126,0-.236.016-.425.048-.426.078-.583.347-.599.898-.015.473-.015,1.103-.015,1.89v1.733"/>
  <path class="st0" d="M95.279,9.625c0-2.395,0-2.836-.032-3.341-.031-.534-.189-.802-.535-.881-.173-.048-.378-.063-.567-.063-.158,0-.252-.032-.252-.158,0-.094.126-.126.377-.126.6,0,1.591.048,2.049.048.393,0,1.322-.048,1.921-.048.205,0,.331.032.331.126,0,.126-.095.158-.252.158-.158,0-.283.015-.473.047-.425.078-.551.347-.582.897-.032.505-.032.946-.032,3.341v2.772c0,1.528,0,2.773.063,3.45.047.425.158.708.63.772.221.031.567.062.803.062.174,0,.252.048.252.126,0,.111-.126.158-.299.158-1.04,0-2.032-.047-2.457-.047-.363,0-1.354.047-1.985.047-.204,0-.314-.047-.314-.158,0-.078.062-.126.251-.126.237,0,.425-.031.567-.062.315-.064.41-.331.457-.789.079-.66.079-1.905.079-3.433v-2.772"/>
  <path class="st0" d="M105.99,12.066c.079,0,.094-.047.079-.095l-1.418-3.891c-.016-.062-.032-.141-.079-.141-.048,0-.079.079-.094.141l-1.45,3.875c-.015.064,0,.111.064.111h2.898M102.776,12.854c-.078,0-.11.031-.141.126l-.851,2.252c-.157.394-.237.772-.237.961,0,.284.142.488.631.488h.236c.189,0,.236.032.236.127,0,.126-.094.157-.268.157-.504,0-1.181-.047-1.67-.047-.173,0-1.039.047-1.859.047-.204,0-.299-.031-.299-.157,0-.095.064-.127.189-.127.142,0,.363-.015.488-.031.726-.095,1.025-.629,1.34-1.418l3.953-9.892c.19-.457.285-.63.442-.63.141,0,.237.141.393.504.378.866,2.898,7.293,3.908,9.687.598,1.418,1.055,1.639,1.385,1.718.236.047.473.062.662.062.126,0,.204.016.204.127,0,.126-.141.157-.724.157-.566,0-1.716,0-2.978-.031-.283-.016-.472-.016-.472-.126,0-.095.064-.127.221-.142.11-.033.221-.174.142-.362l-1.26-3.34c-.032-.079-.079-.11-.158-.11h-3.513Z"/>
</svg>